<svg version="1.2" xmlns="http://www.w3.org/2000/svg" viewBox="0 0 220 220" width="220" height="220">
	<title>image</title>
	<defs>
		<linearGradient id="g1" x1="180.9" y1="-28.6" x2="12.6" y2="274.5" gradientUnits="userSpaceOnUse">
			<stop offset="0" stop-color="#5b36ef"/>
			<stop offset="1" stop-color="#347ff0"/>
		</linearGradient>
	</defs>
	<style>
		.s0 { fill: url(#g1) } 
		.s1 { fill: #ffffff } 
	</style>
	<path id="Layer" class="s0" d="m110 220c-60.8 0-110-49.2-110-110 0-60.8 49.2-110 110-110 60.8 0 110 49.2 110 110 0 60.8-49.2 110-110 110z"/>
	<path id="Layer" class="s1" d="m66.7 43.8l-6.7-11.4 2-1.2 6 10-0.6-0.2 5.6-3.3 1.1 1.8z"/>
	<path id="Layer" class="s1" d="m76.6 38.3l-4.9-12.4 8.8-3.4 0.7 1.9-7 2.8 0.3-0.7 1.7 4.2-0.7-0.3 6.2-2.5 0.7 1.8-6.2 2.5 0.3-0.7 1.7 4.4-0.7-0.3 7.1-2.9 0.8 1.9z"/>
	<path id="Layer" class="s1" d="m91.4 33.2l-2.4-10.9-4 0.9-0.4-2.1 10.2-2.3 0.5 2.1-4 0.9 2.4 10.9z"/>
	<path id="Layer" class="s1" d="m98.9 23.6l-0.2-1.2 0.3-0.1c0.4-0.1 0.7-0.1 0.7-0.4 0.2-0.2 0.2-0.5 0.2-0.8l-0.1-0.7-1 0.1-0.3-2.1 2.3-0.3 0.3 3c0.1 0.8 0 1.4-0.3 1.7-0.4 0.3-0.8 0.5-1.4 0.6z"/>
	<path id="Layer" class="s1" d="m110.5 31.2c-1.2 0-2.2-0.3-2.9-0.7-0.8-0.4-1.4-0.8-1.8-1.6-0.4-0.6-0.5-1.4-0.5-2.2l2.4 0.1c0 0.5 0.1 1 0.3 1.3 0.3 0.3 0.6 0.6 1 0.8 0.4 0.3 1 0.4 1.6 0.4 0.8 0 1.5-0.2 2-0.4 0.5-0.3 0.8-0.8 0.8-1.4 0-0.3-0.1-0.6-0.2-0.8 0-0.3-0.3-0.5-0.5-0.7-0.3-0.1-0.6-0.3-1-0.4-0.4 0-1-0.2-1.6-0.3-0.7-0.1-1.4-0.3-2-0.5-0.5-0.3-1-0.5-1.4-0.8-0.4-0.3-0.7-0.7-0.9-1.1-0.1-0.4-0.2-1-0.2-1.5 0-0.8 0.2-1.5 0.6-2.1 0.4-0.5 1-1 1.7-1.3 0.8-0.3 1.7-0.5 2.7-0.5 1.1 0 1.9 0.2 2.6 0.5q1.1 0.5 1.7 1.5c0.4 0.6 0.6 1.2 0.6 2h-2.5c0-0.5-0.2-0.8-0.4-1.2-0.2-0.3-0.5-0.5-0.9-0.7-0.4-0.1-0.8-0.2-1.3-0.2-0.5 0-1 0.1-1.3 0.1-0.4 0.2-0.7 0.4-0.9 0.7-0.3 0.2-0.3 0.5-0.3 0.9 0 0.5 0 0.8 0.3 1.1 0.2 0.2 0.5 0.4 1.1 0.5 0.5 0.2 1.2 0.3 2 0.4 0.5 0.1 1.1 0.2 1.6 0.4 0.6 0.2 1 0.4 1.4 0.6 0.4 0.3 0.8 0.7 1.1 1.2 0.2 0.5 0.4 1.1 0.3 1.9 0 0.8-0.2 1.4-0.6 2.1-0.4 0.6-1.1 1-1.9 1.3-0.6 0.4-1.5 0.6-2.7 0.6z"/>
	<path id="Layer" fill-rule="evenodd" class="s1" d="m124.5 32.2l3.3-12.9 6.1 1.5c0.8 0.2 1.5 0.6 2 1 0.5 0.4 0.9 0.9 1 1.5 0.2 0.5 0.2 1.1 0 1.8 0 0.5-0.3 0.8-0.5 1.2-0.3 0.3-0.6 0.6-1 0.8-0.4 0.1-0.8 0.3-1.2 0.3v0.1c0.4 0.3 0.8 0.6 1.1 0.9 0.2 0.4 0.5 0.8 0.5 1.3 0.1 0.4 0.1 0.9 0 1.4-0.2 0.8-0.6 1.4-1.1 1.9-0.4 0.5-1.1 0.7-1.8 0.8-0.7 0.1-1.6 0.1-2.5-0.1zm2.7-1.3l3.3 0.9c0.8 0.2 1.5 0.2 2-0.1 0.4-0.2 0.8-0.7 0.9-1.2 0.2-0.7 0.1-1.2-0.2-1.6-0.3-0.4-0.8-0.7-1.5-0.9l-3.6-0.9zm1.4-5.7l3.4 0.9c0.5 0.1 0.9 0.2 1.2 0.1 0.3-0.1 0.7-0.2 0.8-0.5 0.2-0.2 0.4-0.5 0.5-0.9 0.1-0.5 0.1-1.1-0.3-1.5-0.3-0.3-0.7-0.7-1.4-0.8l-3.2-0.8z"/>
	<path id="Layer" fill-rule="evenodd" class="s1" d="m138 35.9l5.4-12.1 5.8 2.6c0.7 0.3 1.2 0.7 1.6 1 0.5 0.4 0.8 0.8 1 1.3 0.2 0.5 0.3 1 0.3 1.4 0 0.5-0.2 1.1-0.4 1.6-0.3 0.7-0.8 1.3-1.4 1.6-0.6 0.3-1.3 0.5-2.1 0.3v0.1c0.5 0.4 0.9 0.9 1 1.4 0.1 0.6 0 1.1-0.3 1.8l-0.9 2c-0.1 0.2-0.2 0.5-0.3 0.7-0.1 0.3-0.2 0.5-0.2 0.8l-2.2-1c0-0.2 0.1-0.4 0.1-0.7 0.1-0.2 0.1-0.5 0.3-0.7l0.7-1.6c0.2-0.4 0.3-0.7 0.3-1.1 0-0.3-0.1-0.5-0.4-0.8-0.2-0.3-0.6-0.6-1.1-0.8l-3.2-1.5-2.1 4.6zm5.1-5.3l3.3 1.5q1.2 0.5 1.9 0.2c0.5-0.2 0.9-0.6 1.1-1.2q0.4-0.7 0.3-1.2-0.2-0.4-0.5-0.9c-0.3-0.2-0.7-0.5-1-0.7l-3.4-1.5z"/>
	<path id="Layer" fill-rule="evenodd" class="s1" d="m155.4 45.5c-0.8-0.5-1.4-1.1-2-1.9-0.4-0.7-0.7-1.5-0.9-2.2-0.2-0.8-0.1-1.7 0.2-2.6 0.2-0.8 0.6-1.7 1.2-2.6 0.7-0.9 1.3-1.6 2.1-2 0.7-0.5 1.5-0.8 2.3-1 0.8-0.1 1.6-0.1 2.4 0.1 0.9 0.2 1.7 0.6 2.5 1.2 0.8 0.5 1.4 1.2 1.9 1.9 0.5 0.7 0.8 1.5 1 2.3 0.1 0.8 0.1 1.6-0.2 2.5-0.2 0.9-0.6 1.7-1.2 2.6-0.7 0.9-1.3 1.6-2.1 2.1-0.7 0.4-1.5 0.7-2.3 0.9-0.8 0.2-1.6 0.1-2.4-0.1-0.8-0.1-1.7-0.6-2.5-1.2zm1.2-1.6c0.7 0.5 1.4 0.8 2.1 0.8 0.8 0 1.5-0.1 2.1-0.5 0.6-0.4 1.3-1 1.9-1.8 0.5-0.7 0.7-1.3 0.9-1.8 0.2-0.6 0.3-1.2 0.2-1.7-0.1-0.6-0.2-1-0.6-1.5-0.3-0.5-0.7-0.9-1.1-1.3-0.8-0.4-1.4-0.8-2.1-0.8-0.7 0-1.4 0.1-2 0.5-0.8 0.4-1.4 1-1.9 1.8-0.5 0.7-0.8 1.3-1 1.9-0.2 0.6-0.2 1.1-0.2 1.6 0.1 0.6 0.3 1 0.6 1.5 0.3 0.5 0.6 0.9 1.1 1.3z"/>
	<path id="Layer" class="s1" d="m163.3 51.4l9.6-9.2 2 2.2-3 11.3 0.1 0.1 3.1-3.1 4.1-3.8 1.6 1.6-9.6 9.2-1.9-2 2.9-11.2-0.1-0.1-2.9 2.8-4.2 4z"/>
	<path id="Layer" class="s1" d="m176.6 67.8c-0.6-0.9-0.9-1.7-1-2.5-0.2-0.9-0.2-1.7 0-2.5 0.3-0.8 0.6-1.5 1.2-2.2q0.8-1 2.1-1.9c0.9-0.5 1.8-0.9 2.7-1.1 0.8-0.1 1.7-0.1 2.5 0 0.8 0.2 1.6 0.6 2.3 1.1 0.7 0.5 1.3 1.1 1.8 2 0.6 1 1 1.9 1.1 2.8 0.1 1 0.1 1.9-0.2 2.7-0.3 0.7-0.8 1.5-1.5 2.1l-1.4-2.1c0.4-0.4 0.7-0.8 0.8-1.2 0.2-0.5 0.2-1 0.1-1.5-0.1-0.6-0.3-1.1-0.6-1.6-0.5-0.7-1.1-1.3-1.7-1.6-0.6-0.3-1.3-0.5-2.1-0.4-0.8 0.1-1.6 0.4-2.5 1-0.6 0.4-1.2 0.8-1.6 1.3-0.3 0.5-0.7 1-0.7 1.5-0.1 0.6-0.2 1-0.1 1.6 0.1 0.5 0.3 1.1 0.6 1.6 0.5 0.7 1 1.2 1.5 1.5 0.6 0.3 1.2 0.4 1.8 0.4 0.7 0 1.4-0.2 2-0.6l0.4-0.2-0.3 1-2.5-3.9 1.5-1 3.4 5.4-1 0.6q-1.2 0.7-2.4 1c-0.8 0.1-1.5 0-2.3-0.1-0.7-0.2-1.4-0.6-2.1-1.1-0.7-0.6-1.3-1.3-1.8-2.1z"/>
	<path id="Layer" class="s1" d="m184.7 84.4l4.9-1.6 6.3-7.2 0.8 2.6-4.5 4.9v0.2l6.6 1.4 0.9 2.6-9.3-2.2-4.9 1.6z"/>
	<path id="Layer" fill-rule="evenodd" class="s1" d="m188.1 99.7c-0.1-1-0.1-1.9 0.1-2.8 0.2-0.9 0.6-1.6 1-2.2 0.5-0.7 1.2-1.2 2-1.6 0.8-0.4 1.7-0.7 2.8-0.9 1-0.1 2-0.1 2.9 0.1 0.9 0.2 1.7 0.6 2.3 1 0.6 0.5 1.2 1.1 1.6 1.9 0.4 0.8 0.7 1.7 0.8 2.6 0.1 1 0 1.9-0.1 2.8-0.3 0.9-0.6 1.6-1 2.2-0.5 0.6-1.2 1.2-1.9 1.6-0.8 0.4-1.8 0.7-2.8 0.8-1 0.1-2.1 0.1-2.9-0.1-0.9-0.2-1.7-0.6-2.3-1-0.7-0.5-1.2-1.1-1.6-1.9-0.5-0.7-0.7-1.5-0.9-2.5zm2.1-0.3c0.1 0.9 0.4 1.6 0.8 2.1 0.4 0.6 1 1 1.7 1.2 0.7 0.3 1.6 0.3 2.6 0.2 0.8-0.1 1.4-0.3 2-0.6 0.5-0.2 1-0.6 1.3-1 0.4-0.4 0.7-0.9 0.7-1.4 0.2-0.6 0.2-1.1 0.1-1.7-0.1-0.8-0.4-1.6-0.8-2.1-0.4-0.6-1-1-1.7-1.2-0.7-0.2-1.6-0.3-2.6-0.1-0.8 0-1.4 0.3-2 0.5-0.5 0.2-1 0.6-1.3 1q-0.5 0.6-0.7 1.5c-0.1 0.4-0.2 1-0.1 1.6z"/>
	<path id="Layer" class="s1" d="m188.7 114.9c0.1-1.2 0.3-2.1 0.8-2.9 0.4-0.8 1.1-1.4 1.9-1.8 0.8-0.4 1.7-0.5 2.7-0.4l8.2 0.4-0.1 2.4-8.2-0.5c-0.7 0-1.3 0.1-1.7 0.3-0.5 0.3-0.8 0.6-1.1 1.1q-0.3 0.7-0.5 1.6c0 0.7 0.1 1.3 0.3 1.8 0.2 0.4 0.5 0.8 0.9 1.1 0.4 0.2 1 0.4 1.6 0.5l8.2 0.4-0.1 2.4-8.3-0.5c-1-0.1-1.9-0.3-2.6-0.8-0.8-0.5-1.3-1.2-1.7-2-0.2-1-0.4-2-0.3-3.1z"/>
	<path id="Layer" fill-rule="evenodd" class="s1" d="m187.9 124.4l12.9 3.2-1.6 6.2c-0.2 0.7-0.4 1.3-0.7 1.8-0.3 0.5-0.7 0.9-1 1.2-0.4 0.3-0.9 0.5-1.4 0.5-0.5 0.1-1 0-1.6 0-0.8-0.2-1.3-0.6-1.8-1.2q-0.7-0.8-0.7-1.8h-0.2c-0.3 0.6-0.7 1-1.1 1.2-0.5 0.3-1.1 0.3-1.9 0.1l-2-0.6c-0.3 0-0.5 0-0.7-0.1-0.3-0.1-0.5-0.1-0.8 0l0.5-2.4c0.2 0 0.4 0 0.7 0 0.2 0 0.5 0.1 0.8 0.2l1.7 0.4c0.4 0 0.7 0.1 1 0 0.3 0 0.6-0.2 0.8-0.4 0.3-0.3 0.4-0.7 0.6-1.3l0.8-3.5-4.9-1.2zm6.2 4l-0.9 3.5c-0.2 0.8-0.1 1.5 0.2 1.9 0.3 0.4 0.8 0.8 1.3 0.8 0.5 0.2 0.9 0.2 1.3 0 0.4-0.1 0.6-0.3 0.9-0.6q0.3-0.5 0.4-1.2l0.9-3.5z"/>
	<path id="Layer" class="s1" d="m180.3 146.1l4.5 2.5 9.5-0.5-1.3 2.4-6.6 0.2-0.1 0.1 3.6 5.6-1.3 2.4-4.8-8.2-4.5-2.4z"/>
	<path id="Layer" fill-rule="evenodd" class="s1" d="m171.6 159.1c0.7-0.8 1.3-1.4 2.1-1.8 0.7-0.5 1.5-0.7 2.3-0.8 0.8-0.1 1.7 0 2.6 0.3 0.8 0.4 1.6 0.8 2.5 1.5q1.3 0.9 1.9 2.1c0.5 0.8 0.7 1.6 0.8 2.4 0.1 0.8 0 1.6-0.3 2.4-0.2 0.8-0.7 1.7-1.3 2.4-0.6 0.8-1.3 1.4-2 1.8-0.8 0.5-1.6 0.7-2.4 0.8-0.8 0.1-1.7 0-2.5-0.2-0.9-0.3-1.7-0.8-2.6-1.5-0.8-0.6-1.5-1.4-2-2.1-0.4-0.8-0.7-1.6-0.7-2.4-0.1-0.8 0-1.6 0.2-2.4 0.4-0.9 0.8-1.7 1.4-2.5zm1.7 1.4c-0.6 0.6-0.9 1.3-1 2 0 0.7 0 1.5 0.4 2.2 0.4 0.7 1 1.3 1.8 1.9 0.6 0.5 1.1 0.8 1.7 1.1q0.8 0.3 1.7 0.2c0.5 0 1-0.2 1.5-0.5 0.4-0.2 0.9-0.6 1.3-1.1 0.6-0.6 0.9-1.3 1-2 0-0.7 0-1.5-0.4-2.2-0.3-0.7-0.9-1.3-1.7-1.9-0.6-0.5-1.2-0.8-1.7-1.1-0.6-0.2-1.1-0.3-1.7-0.3-0.6 0-1 0.2-1.5 0.5-0.6 0.3-1 0.6-1.4 1.2z"/>
	<path id="Layer" class="s1" d="m161 170c0.9-0.8 1.8-1.2 2.7-1.4 0.9-0.2 1.8-0.1 2.6 0.2 0.9 0.3 1.6 0.8 2.3 1.6l5.4 6.4-1.8 1.5-5.4-6.3c-0.4-0.5-0.9-0.9-1.3-1-0.5-0.2-1-0.2-1.5-0.1-0.5 0.2-1.1 0.4-1.5 0.9-0.6 0.4-0.9 0.9-1.2 1.4-0.2 0.5-0.2 0.9-0.1 1.5 0.1 0.6 0.4 0.9 0.8 1.4l5.4 6.3-1.9 1.6-5.3-6.3c-0.7-0.8-1.1-1.7-1.3-2.5-0.2-0.9-0.1-1.8 0.3-2.6 0.3-1 1-1.8 1.8-2.6z"/>
	<path id="Layer" fill-rule="evenodd" class="s1" d="m153.6 176l6.6 11.5-5.6 3.2c-0.6 0.4-1.2 0.6-1.8 0.7-0.5 0.2-1.1 0.2-1.6 0.1-0.4-0.1-0.9-0.3-1.3-0.5-0.4-0.3-0.7-0.7-1-1.3-0.4-0.7-0.6-1.3-0.5-2 0.1-0.8 0.4-1.4 0.9-1.9h-0.1c-0.6 0.2-1.3 0.2-1.8 0-0.4-0.3-0.9-0.7-1.2-1.3l-1.1-1.9c-0.2-0.2-0.3-0.4-0.4-0.6-0.2-0.3-0.3-0.4-0.6-0.6l2.2-1.2q0.2 0.1 0.4 0.5 0.3 0.4 0.5 0.7l0.9 1.5c0.2 0.4 0.4 0.6 0.7 0.8 0.2 0.2 0.5 0.2 0.9 0.2 0.3 0 0.7-0.1 1.2-0.4l3.1-1.8-2.5-4.4zm1.4 7.4l-3.2 1.8c-0.7 0.4-1.1 0.8-1.2 1.4-0.1 0.5 0 1 0.3 1.6 0.2 0.4 0.5 0.7 0.9 0.8 0.3 0.2 0.7 0.3 1 0.2q0.6-0.1 1.2-0.5l3.1-1.8z"/>
	<path id="Layer" class="s1" d="m135.9 184.7l4.1 12.5-2.3 0.8-4.1-12.6z"/>
	<path id="Layer" class="s1" d="m129.7 186.9l2.1 13-3.6 0.6-4.7-8.8h-0.1l-1.6 9.8-3.7 0.5-2.1-13 2.3-0.4 0.9 5.6 0.8 5h0.2l1.7-11.2 1.9-0.3 5.2 10.1h0.2l-0.9-5-0.9-5.6z"/>
	<path id="Layer" fill-rule="evenodd" class="s1" d="m113.4 189.2l-5.1 13.1-3.4-0.2-4.1-13.4 2.5 0.1 0.9 2.9 5.5 0.1 1.1-2.8zm-4.2 4.7l-4.3-0.2 1.1 3.8 0.8 2.6 1-2.5z"/>
	<path id="Layer" class="s1" d="m92.8 186.9c1 0.3 1.8 0.6 2.5 1.1 0.7 0.4 1.3 1.1 1.7 1.8 0.5 0.7 0.8 1.5 0.8 2.4 0.1 0.8 0.1 1.8-0.1 2.8-0.3 1-0.7 1.9-1.1 2.7-0.5 0.7-1.1 1.3-1.8 1.8-0.8 0.5-1.5 0.7-2.4 0.9-0.9 0.1-1.8 0.1-2.8-0.2q-1.6-0.3-2.8-1.2c-0.8-0.5-1.4-1.2-1.8-2-0.4-0.8-0.4-1.7-0.4-2.6l2.5 0.6c0 0.6 0.1 1 0.3 1.5 0.2 0.4 0.6 0.8 1 1.1 0.5 0.3 1 0.6 1.6 0.6 0.8 0.2 1.6 0.2 2.3 0 0.7-0.3 1.3-0.7 1.7-1.3 0.5-0.6 0.9-1.4 1.1-2.4 0.1-0.7 0.2-1.4 0.1-2q-0.1-1-0.4-1.7c-0.3-0.5-0.7-0.9-1.2-1.2-0.4-0.3-0.9-0.5-1.5-0.7q-1.2-0.2-2.2 0-0.9 0.3-1.6 1c-0.5 0.4-0.7 1.1-1 1.8l-0.1 0.5-0.4-1 4.5 1-0.4 1.8-6.3-1.4 0.3-1.2c0.2-0.8 0.5-1.6 1-2.3 0.5-0.7 1-1.2 1.7-1.6 0.6-0.4 1.4-0.6 2.2-0.7 1.2-0.1 2-0.1 3 0.1z"/>
	<path id="Layer" class="s1" d="m83.3 184.4l-4.7 12.4-2.2-0.9 4.7-12.4z"/>
	<path id="Layer" class="s1" d="m77.1 182l-6.4 11.7-2.6-1.5-0.6-11.7-0.1-0.1-2 3.9-2.6 4.9-2.1-1.1 6.4-11.6 2.5 1.4 0.7 11.6v0.1l1.9-3.5 2.8-5.2z"/>
	<path id="Layer" fill-rule="evenodd" class="s1" d="m64.8 175.1l-11.9 7.3-2.6-2.1 4.9-13.1 1.9 1.6-1.1 2.8 4.2 3.5 2.6-1.7zm-6.1 1.1l-3.4-2.7-1.4 3.7-0.9 2.5 0.1 0.1 2.3-1.4z"/>
	<path id="Layer" class="s1" d="m51.5 163.2l-8.3 7.3 2.7 3-1.6 1.4-7-7.9 1.6-1.4 2.7 3.1 8.4-7.4z"/>
	<path id="Layer" class="s1" d="m45.6 155.8l-10.9 7.5-1.3-2 10.9-7.5z"/>
	<path id="Layer" fill-rule="evenodd" class="s1" d="m39.5 145.2c0.4 0.8 0.7 1.7 0.7 2.6 0.1 0.8 0 1.6-0.2 2.4-0.2 0.8-0.7 1.5-1.3 2.1-0.7 0.7-1.5 1.2-2.4 1.8-1 0.5-1.9 0.8-2.8 0.8-0.8 0.1-1.7 0-2.5-0.2-0.8-0.2-1.5-0.7-2.1-1.3-0.7-0.5-1.2-1.3-1.7-2.2-0.5-0.8-0.7-1.7-0.8-2.6-0.1-0.8 0-1.6 0.3-2.4 0.2-0.8 0.7-1.5 1.2-2.2q1-0.9 2.4-1.6c0.9-0.5 1.9-0.8 2.8-0.9 0.8-0.1 1.7 0 2.5 0.3 0.8 0.2 1.5 0.7 2.1 1.2 0.7 0.6 1.3 1.3 1.8 2.2zm-1.9 0.9c-0.4-0.8-0.9-1.3-1.5-1.7-0.7-0.4-1.3-0.6-2.1-0.6-0.8 0-1.7 0.2-2.5 0.7q-1.1 0.5-1.7 1.2-0.6 0.6-0.9 1.4c-0.3 0.6-0.3 1.1-0.3 1.6q0.2 0.8 0.5 1.7c0.4 0.7 0.9 1.3 1.4 1.7 0.7 0.4 1.3 0.6 2.1 0.6 0.8 0 1.6-0.3 2.5-0.8q1.1-0.4 1.7-1.1c0.4-0.5 0.8-0.9 0.9-1.5 0.3-0.4 0.3-1 0.3-1.5 0-0.6-0.1-1.1-0.4-1.7z"/>
	<path id="Layer" class="s1" d="m35.3 136.3l-12.8 3.5-0.8-2.9 8-8.6v-0.1l-4.2 1.2-5.5 1.5-0.6-2.2 12.8-3.5 0.7 2.7-7.8 8.6v0.1l3.8-1.1 5.6-1.5z"/>
	<path id="Layer" class="s1" d="m31.1 113.1l-11.2 0.2 0.1 4-2 0.1-0.3-10.5 2.1-0.1 0.1 4.1 11.1-0.2z"/>
	<path id="Layer" fill-rule="evenodd" class="s1" d="m32 98.2c-0.1 0.9-0.4 1.8-0.8 2.6-0.4 0.7-1 1.3-1.7 1.9-0.7 0.5-1.4 0.7-2.3 1-0.9 0.1-1.8 0.2-2.9 0.1-1-0.2-2-0.5-2.8-0.9-0.8-0.5-1.4-1-1.9-1.7-0.4-0.7-0.8-1.4-1-2.3-0.2-0.8-0.2-1.7-0.1-2.7 0.2-1.1 0.5-1.8 0.9-2.6q0.6-1.1 1.6-1.9c0.7-0.5 1.5-0.9 2.3-1.1q1.3-0.2 2.9 0c1 0.2 2 0.5 2.7 0.9 0.8 0.5 1.5 1 1.9 1.7 0.5 0.6 0.8 1.4 1.1 2.3 0.3 0.8 0.3 1.7 0.1 2.7zm-2-0.4c0.1-0.8 0.1-1.5-0.3-2.3-0.3-0.7-0.7-1.1-1.3-1.6-0.6-0.5-1.5-0.7-2.5-0.9-0.7-0.1-1.4-0.1-2 0-0.6 0.1-1.1 0.3-1.6 0.6-0.5 0.4-0.8 0.8-1.1 1.2-0.3 0.5-0.5 1.1-0.5 1.7-0.2 0.8-0.1 1.6 0.2 2.2 0.2 0.6 0.7 1.2 1.3 1.7 0.7 0.4 1.5 0.7 2.5 0.8 0.8 0.1 1.4 0.2 2 0 0.7 0 1.2-0.3 1.6-0.6 0.5-0.3 0.8-0.7 1.1-1.1 0.3-0.5 0.5-1 0.6-1.7z"/>
	<path id="Layer" class="s1" d="m35.5 83.3l-12.2-5.1 0.9-2.2 10.7 4.5-0.6 0.1 2.5-6 1.9 0.8z"/>
	<path id="Layer" class="s1" d="m40.2 72.9l-11.6-6.4 1.2-2.2 11.6 6.4z"/>
	<path id="Layer" class="s1" d="m43.6 67l-10.8-7.7 5.6-7.7 1.6 1.2-4.3 6-0.1-0.5 3.7 2.6-0.6 0.1 4-5.4 1.6 1.2-4 5.4-0.1-0.5 4.8 3.4z"/>
	<path id="Layer" class="s1" d="m51.2 57.1l-9.3-9.4 6.7-6.7 1.4 1.5-5.3 5.4v-0.7l3.1 3.2h-0.7l4.8-4.8 1.3 1.4-4.7 4.7v-0.7l3.3 3.4h-0.7l5.3-5.4 1.5 1.5z"/>
	<path id="Layer" class="s1" d="m109.6 61l2.5 12c3.8 17.6 17.5 31.3 35.1 35.1l12 2.5-12 2.6c-17.6 3.8-31.3 17.5-35.1 35.1l-2.5 12-2.6-12c-3.8-17.6-17.5-31.3-35.1-35.1l-12-2.6 12-2.5c17.6-3.8 31.3-17.5 35.1-35.1z"/>
</svg>