<svg version="1.2" xmlns="http://www.w3.org/2000/svg" viewBox="0 0 1440 1276" width="1440" height="1276">
	<title>image</title>
	<defs>
		<linearGradient id="g1" x1="724" y1="-172" x2="724" y2="1276" gradientUnits="userSpaceOnUse">
			<stop offset="0" stop-color="#c4c4c9"/>
			<stop offset="1" stop-color="#e3e2f1" stop-opacity="0"/>
		</linearGradient>
	</defs>
	<style>
		.s0 { fill: url(#g1) } 
	</style>
	<path id="Layer" fill-rule="evenodd" class="s0" d="m1448-124.3v-1.6c-10.6 0-21.1 0.1-31.3-0.2 0.6-15.6 1.3-31 2.5-45.9h-1.6c-1.2 14.9-1.9 30.2-2.5 45.7-19.2 0.5-38.4-0.7-56.8-1.6 0.4-15.1 2.2-29.5 3.8-44.1h-1.6c-1.5 14.4-3.4 28.5-3.8 44.1-17.2-0.8-34.4-1.7-51.9-2.2 0.6-13.8 1.5-27.7 1.7-41.9h-1.5c-0.2 14.1-1.2 28-1.8 41.7-21-0.6-41.5-1.7-62.3-2.4-1.4-13-2.9-26-4.1-39.3h-1.5c1.2 13.2 2.6 26.2 4 39.1-20.5-0.8-41-1.8-61-3.1-1.7-12-3.1-24.3-5.2-36h-1.6c2.1 11.5 3.5 23.7 5 35.8-16.2-0.5-33-2.2-49.5-3 0.5-10.6 0.9-21.7 0.9-32.8h-1.5c0 11-0.4 22-1 32.4-12.9-0.6-26.2-1.7-39.4-2.7-13.2 1-26.5 2.1-39.4 2.7-0.6-10.4-1-21.4-1-32.4h-1.6c0.1 11.1 0.4 22.2 1 32.8-16.5 0.8-33.3 2.5-49.6 3 1.6-12.1 3-24.3 5.1-35.8h-1.6c-2.1 11.7-3.5 24-5.3 36-20 1.3-40.4 2.3-60.9 3.1 1.4-12.9 2.8-25.9 4-39.1h-1.6c-1.2 13.3-2.6 26.3-4 39.3-20.9 0.7-41.3 1.9-62.3 2.4-0.6-13.7-1.6-27.6-1.8-41.7h-1.6c0.3 14.2 1.2 28.1 1.8 41.9-17.5 0.6-34.7 1.4-52 2.2-0.4-15.6-2.2-29.7-3.8-44.1h-1.5c1.6 14.6 3.4 29 3.8 44.1-18.5 0.9-37.6 2.1-56.8 1.6-0.6-15.5-1.4-30.8-2.6-45.7h-1.5c1.2 14.9 1.9 30.3 2.5 45.9-10.2 0.3-20.8 0.2-31.3 0.2-10.6 0-21.1 0.1-31.3-0.2 0.6-15.6 1.3-31 2.5-45.9h-1.6c-1.1 14.9-1.9 30.2-2.5 45.7-19.2 0.5-38.3-0.7-56.8-1.6 0.4-15.1 2.2-29.5 3.8-44.1h-1.5c-1.6 14.4-3.5 28.5-3.9 44.1-17.2-0.8-34.4-1.7-51.9-2.2 0.6-13.8 1.5-27.7 1.7-41.9h-1.5c-0.2 14.1-1.2 28-1.8 41.7-21-0.6-41.5-1.7-62.3-2.4-1.4-13-2.9-26-4-39.3h-1.6c1.2 13.2 2.6 26.2 4 39.1-20.5-0.8-41-1.8-60.9-3.1-1.8-12-3.2-24.3-5.3-36h-1.6c2.1 11.5 3.5 23.7 5.1 35.8-16.3-0.5-33.1-2.2-49.6-3 0.5-10.6 0.9-21.7 0.9-32.8h-1.5c0 11-0.4 22-1 32.4-12.9-0.6-26.2-1.7-39.4-2.7-13.3 1-26.5 2.1-39.4 2.7-0.6-10.4-1-21.4-1-32.4h-1.6c0.1 11.1 0.4 22.2 1 32.8-16.5 0.8-33.3 2.5-49.6 3 1.6-12.1 3-24.3 5.1-35.8h-1.6c-2.1 11.7-3.5 24-5.3 36-20 1.3-40.4 2.3-60.9 3.1 1.4-12.9 2.8-25.9 4-39.1h-1.6c-1.1 13.3-2.6 26.2-4 39.3-20.9 0.7-41.3 1.8-62.3 2.4-0.6-13.7-1.6-27.6-1.8-41.7h-1.5c0.2 14.2 1.1 28.1 1.7 41.9-17.5 0.5-34.7 1.4-51.9 2.2-0.4-15.6-2.3-29.7-3.9-44.1h-1.5c1.6 14.6 3.4 29 3.8 44.1-18.5 0.9-37.6 2.1-56.8 1.6-0.6-15.5-1.4-30.8-2.6-45.7h-1.5c1.2 14.9 1.9 30.3 2.5 45.9-10.2 0.3-20.8 0.2-31.3 0.2v1.6q16 0 31.3-0.2c0.7 21.8 1.6 45.2 0.6 67.3q-15.7 1.3-31.9 2v1.5c11-0.5 21.8-1.2 32.1-1.7-0.3 21.8-0.9 43.5-2 64.7-10 1-20 2-30.1 2.9v1.6c10.2-1 20.3-2 30.1-2.7-0.9 24.7-2 49.1-3.2 73.6-8.5 0.5-17.7 1-26.9 1.1v1.5c9.1 0 18.4-0.5 26.9-1-1.3 22.2-2.1 44.7-3.5 66.7q-11.7 0.5-23.4-0.2v1.5c7.5 0.4 15.5 0.4 23.4 0.5-0.6 11.7-1.2 23.3-1.6 35.2 0.4 11.9 1 23.5 1.6 35.2-7.9 0.1-15.9 0.1-23.4 0.5v1.5q11.7-0.7 23.4-0.2c1.4 22 2.2 44.5 3.5 66.7-8.5-0.5-17.8-1-26.9-1v1.5c9.2 0.1 18.4 0.6 26.9 1.1 1.2 24.5 2.3 48.9 3.2 73.6-9.8-0.7-19.9-1.7-30.1-2.7v1.6c10.1 0.9 20.1 1.9 30.1 2.9 1.1 21.2 1.6 42.9 2 64.7-10.3-0.5-21.1-1.2-32.1-1.7v1.5q16.2 0.7 31.9 2c1 22.1 0.1 45.5-0.6 67.3q-15.3-0.1-31.3-0.2v1.6c10.5 0 21.1-0.1 31.3 0.2-0.6 15.6-1.3 31-2.5 45.9 1.2 14.9 1.9 30.3 2.5 45.9-10.2 0.3-20.8 0.2-31.3 0.2v1.6q16 0 31.3-0.2c0.7 21.8 1.6 45.2 0.6 67.3q-15.7 1.3-31.9 2v1.5c11-0.5 21.8-1.2 32.1-1.7-0.3 21.8-0.9 43.5-2 64.7-10 1-20 2-30.1 2.9v1.6c10.2-1 20.3-2 30.1-2.7-0.9 24.7-2 49.1-3.2 73.6-8.5 0.5-17.7 1-26.9 1.1v1.5c9.1 0 18.4-0.5 26.9-1-1.3 22.2-2.1 44.7-3.5 66.7q-11.7 0.5-23.4-0.2v1.5c7.5 0.4 15.5 0.4 23.4 0.5-0.6 11.7-1.2 23.3-1.6 35.2 0.4 11.9 1 23.5 1.6 35.2-7.9 0.1-15.9 0.1-23.4 0.5v1.5q11.7-0.7 23.4-0.2c1.4 22 2.2 44.5 3.5 66.7-8.5-0.5-17.8-1-26.9-1v1.5c9.2 0.1 18.4 0.6 26.9 1.1 1.2 24.5 2.3 48.9 3.2 73.6-9.8-0.7-19.9-1.7-30.1-2.7v1.6c10.1 0.9 20.1 1.9 30.1 2.9 1.1 21.2 1.6 42.9 2 64.7-10.3-0.5-21.1-1.2-32.1-1.7v1.5q16.2 0.7 31.9 2c1 22.1 0.1 45.5-0.6 67.3q-15.3-0.2-31.3-0.2v1.6c10.5 0 21.1-0.1 31.3 0.2-0.6 15.6-1.3 31-2.5 45.9h1.5c1.2-14.9 2-30.3 2.6-45.7 19.2-0.5 38.3 0.7 56.8 1.6-0.4 15.1-2.2 29.5-3.8 44.1h1.5c1.6-14.4 3.4-28.5 3.9-44.1 17.2 0.8 34.4 1.7 51.9 2.2-0.6 13.8-1.5 27.7-1.7 41.9h1.5c0.2-14.1 1.2-28 1.8-41.7 21 0.5 41.4 1.7 62.3 2.4 1.4 13 2.9 26 4 39.3h1.6c-1.2-13.2-2.6-26.2-4-39.1 20.5 0.9 41 1.8 60.9 3.1 1.8 12 3.2 24.3 5.3 36h1.6c-2.1-11.5-3.5-23.7-5.1-35.8 16.3 0.5 33.1 2.2 49.6 3-0.6 10.6-0.9 21.7-1 32.8h1.6c0-11 0.4-22 1-32.4 12.9 0.6 26.2 1.7 39.4 2.7 13.2-1 26.5-2.1 39.4-2.7 0.6 10.4 1 21.4 1 32.4h1.5c0-11.1-0.3-22.2-0.9-32.8 16.5-0.8 33.3-2.5 49.6-3-1.6 12.1-3 24.3-5.1 35.8h1.6c2.1-11.7 3.5-24 5.3-36 20-1.3 40.4-2.2 60.9-3.1-1.4 12.9-2.8 25.9-4 39.1h1.6c1.2-13.3 2.6-26.3 4-39.3 20.9-0.7 41.3-1.9 62.3-2.4 0.6 13.7 1.6 27.6 1.9 41.7h1.5c-0.3-14.2-1.2-28.1-1.8-41.9 17.5-0.6 34.7-1.4 52-2.2 0.4 15.6 2.2 29.7 3.8 44.1h1.6c-1.7-14.6-3.5-29-3.8-44.1 18.4-0.9 37.5-2.1 56.7-1.6 0.6 15.5 1.4 30.8 2.6 45.7h1.5c-1.2-14.9-1.9-30.3-2.5-45.9 10.2-0.3 20.8-0.2 31.3-0.2 10.6 0 21.1-0.1 31.3 0.2-0.6 15.6-1.3 31-2.5 45.9h1.6c1.2-14.9 1.9-30.3 2.5-45.7 19.2-0.5 38.4 0.7 56.8 1.6-0.4 15.1-2.2 29.5-3.8 44.1h1.5c1.6-14.4 3.5-28.5 3.9-44.1 17.2 0.8 34.4 1.7 51.9 2.2-0.6 13.8-1.5 27.7-1.7 41.9h1.5c0.2-14.1 1.2-28 1.8-41.7 21 0.5 41.5 1.7 62.3 2.4 1.4 13 2.9 26 4 39.3h1.6c-1.2-13.2-2.6-26.2-4-39.1 20.5 0.9 41 1.8 61 3.1 1.7 12 3.1 24.3 5.2 36h1.6c-2.1-11.5-3.5-23.7-5.1-35.8 16.3 0.5 33.1 2.2 49.6 3-0.6 10.6-0.9 21.7-0.9 32.8h1.5c0-11 0.4-22 1-32.4 12.9 0.6 26.2 1.7 39.4 2.7 13.2-1 26.5-2.1 39.4-2.7 0.6 10.4 1 21.4 1 32.4h1.6c-0.1-11.1-0.4-22.2-1-32.8 16.5-0.8 33.3-2.5 49.6-3-1.6 12.1-3 24.3-5.1 35.8h1.6c2.1-11.7 3.5-24 5.3-36 19.9-1.3 40.4-2.2 60.9-3.1-1.4 12.9-2.8 25.9-4 39.1h1.6c1.1-13.3 2.6-26.3 4-39.3 20.9-0.7 41.3-1.9 62.3-2.4 0.6 13.7 1.6 27.6 1.8 41.7h1.5c-0.2-14.2-1.1-28.1-1.7-41.9 17.5-0.6 34.7-1.4 51.9-2.2 0.5 15.6 2.3 29.7 3.9 44.1h1.5c-1.6-14.6-3.4-29-3.8-44.1 18.5-0.9 37.6-2.1 56.8-1.6 0.6 15.5 1.4 30.8 2.6 45.7h1.5c-1.2-14.9-1.9-30.3-2.5-45.9 10.2-0.3 20.8-0.2 31.3-0.2v-1.6q-16 0-31.3 0.2c-0.7-21.8-1.6-45.2-0.6-67.3q15.7-1.3 31.9-2v-1.5c-11 0.5-21.8 1.2-32.1 1.7 0.3-21.8 0.9-43.5 2-64.7 10-1 20-2 30.1-2.9v-1.6c-10.2 1-20.3 2-30.1 2.7 0.9-24.7 2-49.1 3.2-73.6 8.5-0.5 17.7-1 26.9-1.1v-1.5c-9.1 0-18.3 0.5-26.9 1 1.3-22.2 2.1-44.7 3.5-66.7q11.7-0.5 23.4 0.2v-1.5c-7.5-0.4-15.5-0.4-23.4-0.5 0.6-11.7 1.2-23.3 1.6-35.2-0.4-11.9-1-23.5-1.6-35.2 7.9-0.1 15.9-0.1 23.4-0.5v-1.5q-11.7 0.7-23.4 0.2c-1.4-22-2.2-44.5-3.5-66.7 8.6 0.5 17.8 1 26.9 1v-1.5c-9.2-0.1-18.4-0.6-26.9-1.1-1.2-24.5-2.3-48.9-3.2-73.6 9.8 0.7 19.9 1.7 30.1 2.7v-1.6c-10.1-0.9-20.1-1.9-30.1-2.9-1.1-21.2-1.6-42.9-2-64.7 10.3 0.5 21.1 1.2 32.1 1.7v-1.5q-16.2-0.7-31.9-2c-1-22.1-0.1-45.5 0.6-67.3q15.3 0.1 31.3 0.2v-1.6c-10.5 0-21.1 0.1-31.3-0.2 0.6-15.6 1.3-31 2.5-45.9-1.2-14.9-1.9-30.3-2.5-45.9 10.2-0.3 20.8-0.2 31.3-0.2v-1.6q-16 0-31.3 0.2c-0.7-21.8-1.6-45.2-0.6-67.3q15.7-1.3 31.9-2v-1.5c-11 0.5-21.8 1.2-32.1 1.7 0.3-21.8 0.9-43.5 2-64.7 10-1 20-2 30.1-2.9v-1.6c-10.2 1-20.3 2-30.1 2.7 0.9-24.7 2-49.1 3.2-73.6 8.5-0.5 17.7-1 26.9-1.1v-1.5c-9.1 0-18.3 0.5-26.9 1 1.3-22.2 2.1-44.7 3.5-66.7q11.7-0.5 23.4 0.2v-1.5c-7.5-0.4-15.5-0.4-23.4-0.5 0.6-11.7 1.2-23.3 1.6-35.2-0.4-11.9-1-23.5-1.6-35.2 7.9-0.1 15.9-0.1 23.4-0.5v-1.5q-11.7 0.7-23.4 0.2c-1.4-22-2.2-44.5-3.5-66.7 8.6 0.5 17.8 1 26.9 1v-1.5c-9.2-0.1-18.4-0.6-26.9-1.1-1.2-24.5-2.3-48.9-3.2-73.6 9.8 0.7 19.9 1.7 30.1 2.7v-1.6c-10.1-0.9-20.1-1.9-30.1-2.9-1.1-21.2-1.6-42.9-2-64.7 10.3 0.5 21.1 1.2 32.1 1.7v-1.5q-16.2-0.8-31.9-2c-1-22.1-0.1-45.5 0.6-67.3q15.3 0.2 31.3 0.2zm-89.1-2c0.3-0.1 0.5 0.2 0.8 0.2 9 0.8 18.1 0.6 27.5 1q13.8 0.6 27.9 0.6c-0.8 22-1.2 44.7-0.8 67.3-18.5-1.4-36.9-2.9-55.4-4.4-0.7-18.8-1.7-41.7-0.8-61.1 0.1-2-0.4-3.3 0.8-3.6zm56.2 630.8q-14.1 0-27.9 0.6c-9.4 0.4-18.5 0.2-27.5 1-0.3 0-0.5 0.3-0.8 0.2-1.2-0.3-0.7-1.6-0.8-3.6-0.9-19.4 0.1-42.3 0.8-61.1 18.4-1.5 36.9-3 55.4-4.4-0.4 22.6 0 45.3 0.8 67.3zm-0.8 162.3c-18.6-1.4-37-2.9-55.4-4.4-0.7-18.8-1.7-41.7-0.8-61.1 0.1-2-0.4-3.3 0.8-3.6 0.3-0.1 0.5 0.2 0.8 0.2 9 0.8 18.1 0.6 27.5 1q13.8 0.6 27.9 0.6c-0.8 22-1.2 44.7-0.8 67.3zm-232 438.5c22 0.4 44.2 0 65.9-0.4-0.3 23.9-2 46.6-3.6 69.3-19.9 1.6-40.6 2.6-60.9 3.9h-0.4c0.1-24.7-0.3-48.9-1-72.8zm-193.7 72.8h-0.4c-20.3-1.3-40.9-2.3-60.9-3.9-1.6-22.7-3.3-45.4-3.6-69.3 21.7 0.4 44 0.8 65.9 0.4-0.7 23.9-1.1 48.1-1 72.8zm-530.3-72.8c22 0.4 44.2 0 65.9-0.4-0.3 23.9-2 46.6-3.6 69.3-19.9 1.6-40.6 2.6-60.9 3.9h-0.4c0.1-24.7-0.3-48.9-1-72.8zm-193.7 72.8h-0.4c-20.3-1.3-40.9-2.3-60.9-3.9-1.6-22.7-3.2-45.4-3.6-69.3 21.7 0.4 44 0.8 65.9 0.4-0.7 23.9-1.1 48.1-1 72.8zm-231.7-578.6q14.1 0 27.9-0.6c9.3-0.4 18.5-0.2 27.4-1 0.3 0 0.5-0.3 0.8-0.2 1.3 0.3 0.7 1.6 0.8 3.6 0.9 19.4 0 42.3-0.8 61.1-18.4 1.5-36.8 3-55.3 4.4 0.4-22.6-0.1-45.3-0.8-67.3zm0.8-162.3c18.5 1.4 36.9 2.9 55.3 4.4 0.8 18.8 1.7 41.7 0.8 61.1-0.1 2 0.5 3.3-0.8 3.6-0.3 0.1-0.5-0.2-0.8-0.2-8.9-0.8-18.1-0.6-27.4-1q-13.8-0.6-27.9-0.6c0.7-22 1.2-44.7 0.8-67.3zm231.9-438.5c-21.9-0.4-44.1 0-65.9 0.4 0.4-23.9 2-46.6 3.6-69.3 20-1.6 40.6-2.6 61-3.9h0.4c-0.2 24.7 0.2 48.9 0.9 72.8zm193.7-72.8h0.4c20.3 1.3 41 2.3 60.9 3.9 1.6 22.7 3.3 45.4 3.6 69.3-21.7-0.4-43.9-0.8-65.9-0.4 0.7-23.9 1.1-48.1 1-72.8zm530.3 72.8c-21.9-0.4-44.1 0-65.9 0.4 0.4-23.9 2-46.6 3.6-69.3 20-1.6 40.6-2.6 60.9-3.9h0.4c-0.1 24.7 0.3 48.9 1 72.8zm193.7-72.8h0.4c20.3 1.3 41 2.3 60.9 3.9 1.6 22.7 3.3 45.4 3.6 69.3-21.7-0.4-43.9-0.8-65.9-0.4 0.7-23.9 1.1-48.1 1-72.8zm173.2 580.4c-17.2 0.9-34.4 1.7-52 2.2-0.8-20.7-2.3-40.8-2.9-61.7 18.6-1.7 37-3.5 55.7-5-1.1 20.6-1.2 43-0.8 64.5zm0.8 155.9c-18.7-1.5-37.1-3.3-55.7-5 0.6-20.9 2.1-41 2.9-61.7 17.6 0.5 34.8 1.3 52 2.2-0.4 21.5-0.3 43.9 0.8 64.5zm-108.5 375.8c15.7-1.6 31.1-3.6 46.6-5.4 0.7 23.1 1.7 45.9 2.2 69.3-16 0.4-31.7 1.1-47.8 1.4 0.6-21.9-0.1-44.2-1-65.3zm0.4-1.6c-0.9-3.1-0.9-6.4-1-9.6-1-22.7-2.8-45.8-5.2-67.5 16.3-0.6 32.7-1.2 48.6-2.1 1.4 24.3 2.8 48.8 3.6 73.8q-22.9 2.8-46 5.4zm-327.1 66.9c-16.1-0.3-31.8-1-47.8-1.4 0.5-23.4 1.5-46.2 2.2-69.3 15.5 1.8 30.9 3.8 46.6 5.4-0.9 21.1-1.6 43.4-1 65.3zm-285.2-79.8c-0.8-23.3-1.1-47.2-2.6-69.9 21.3-1.2 42.6-2.3 64.7-2.6-1.2 22.2-2.5 44.4-3.4 66.9-20 1.4-39.3 3.6-58.7 5.6zm58.5-4c-1 24.6-2.2 49.1-3.1 73.8-18.4 1.7-36.5 3.6-55 5-1.1-0.5-0.6-2.7-0.6-4.2v-69c19.4-2 38.7-4.2 58.7-5.6zm-170.6 18.5c15.7-1.6 31.1-3.5 46.6-5.3 0.7 23.1 1.7 45.9 2.2 69.2-16 0.5-31.7 1.1-47.8 1.4 0.6-21.9-0.1-44.2-1-65.3zm-326.6 65.3c-16.1-0.2-31.8-0.9-47.8-1.3 0.4-23.4 1.4-46.2 2.2-69.3 15.5 1.8 30.8 3.7 46.5 5.3-0.9 21.1-1.5 43.4-0.9 65.4zm0.6-66.9q-23.2-2.6-46-5.4c0.8-25 2.1-49.5 3.5-73.9 16 1 32.3 1.6 48.6 2.2-2.4 21.7-4.2 44.8-5.2 67.5-0.1 3.2 0 6.5-0.9 9.6zm-107.4-438.7c17.2-0.9 34.4-1.7 52-2.2 0.9 20.7 2.4 40.8 3 61.7-18.6 1.7-37 3.5-55.7 5 1-20.6 1.2-43 0.7-64.5zm-0.7-155.9c18.7 1.5 37.1 3.4 55.7 5-0.6 20.9-2.1 41-3 61.7-17.6-0.5-34.8-1.3-52-2.2 0.5-21.5 0.3-43.9-0.7-64.5zm108.5-375.7c-15.8 1.6-31.1 3.5-46.6 5.3-0.8-23.1-1.8-45.9-2.2-69.3 16-0.4 31.7-1 47.8-1.4-0.6 22 0.1 44.3 1 65.3zm-0.4 1.6c0.9 3.1 0.8 6.4 1 9.6 1 22.7 2.7 45.8 5.1 67.5-16.3 0.6-32.6 1.2-48.5 2.2-1.5-24.4-2.8-48.9-3.6-73.9q22.8-2.8 46-5.4zm327-66.9c16.1 0.3 31.8 1 47.8 1.4-0.4 23.4-1.5 46.2-2.2 69.3-15.5-1.8-30.8-3.8-46.6-5.4 0.9-21.1 1.6-43.4 1-65.3zm285.3 79.8c0.8 23.3 1.1 47.2 2.5 69.9-21.3 1.2-42.5 2.3-64.7 2.6 1.3-22.2 2.5-44.3 3.4-66.9 20-1.4 39.3-3.6 58.8-5.6zm-58.6 4c1.1-24.6 2.3-49.1 3.2-73.8 18.3-1.7 36.4-3.6 55-5 1 0.5 0.6 2.7 0.6 4.2v69c-19.5 2-38.7 4.2-58.8 5.6zm170.6-18.5c-15.7 1.6-31 3.6-46.5 5.4-0.8-23.2-1.8-46-2.2-69.3 16-0.4 31.7-1.1 47.8-1.4-0.7 21.9 0 44.2 0.9 65.3zm-175.8 883.1c-7.8 0.1-15.8 0.1-23.3 0.6-7.5-0.5-15.5-0.5-23.4-0.6 0.6-11.7 1.2-23.3 1.6-35.2-0.4-11.9-1-23.5-1.6-35.2 7.9-0.1 15.9-0.1 23.4-0.5 7.5 0.4 15.5 0.4 23.3 0.5-0.5 11.7-1.1 23.3-1.5 35.2 0.4 11.9 1 23.5 1.5 35.2zm-23.3-72.4q-11.7 0.7-23.4 0.3c-1.4-22-2.3-44.6-3.6-66.7 8.6 0.4 17.9 0.9 27 1 9.1-0.1 18.3-0.6 26.9-1-1.3 22.1-2.1 44.7-3.6 66.7q-11.6 0.4-23.3-0.3zm-23.4-722c7.9-0.1 15.9-0.1 23.4-0.5 7.5 0.4 15.5 0.4 23.3 0.5-0.5 11.7-1.1 23.3-1.5 35.2 0.4 11.9 1 23.5 1.5 35.2-7.8 0.1-15.8 0.1-23.3 0.6-7.5-0.5-15.5-0.5-23.4-0.6 0.6-11.7 1.2-23.3 1.6-35.2-0.4-11.9-1-23.5-1.6-35.2zm23.4 72.5q11.7-0.8 23.3-0.3c1.5 22 2.3 44.6 3.6 66.7-8.6-0.4-17.8-0.9-26.9-1-9.1 0.1-18.4 0.6-27 1 1.3-22.1 2.2-44.7 3.6-66.7q11.7-0.5 23.4 0.3zm362 550.8q-11 0.4-21.9 1c-1.7-18-3.8-35.6-5.6-53.6q13.8 0.2 27.5 0.5 13.7-0.3 27.4-0.5c-1.7 18-3.8 35.6-5.5 53.6q-10.9-0.5-21.9-1zm21.5 2.6c-2.3 27.5-5.7 55.6-7.8 84-4.5 0.3-9.1 0.3-13.7 0.1-4.6 0.2-9.2 0.2-13.7-0.1-2.1-28.4-5.5-56.5-7.8-84q10.6-0.6 21.5-1 10.8 0.4 21.5 1zm-350.6-181.2q14.1 0 27.9-0.6c9.3-0.4 18.5-0.2 27.5-1 0.3 0 0.4-0.3 0.7-0.2 1.3 0.4 0.8 1.7 0.8 3.6 0.9 19.4 0 42.4-0.8 61.1-18.4 1.5-36.8 3-55.3 4.4 0.4-22.5 0-45.3-0.8-67.3zm-119.6 130.2c18.5 1.5 36.7 3.3 55 5 0.9 24.8 2.1 49.3 3.2 73.8-20.1-1.3-39.3-3.5-58.8-5.5v-69.1c0-1.4-0.5-3.7 0.6-4.2zm-0.6-1.6c-0.1-21.8-0.8-43-1.8-64.1q27.7 2.2 55.4 4.4c0.4 21.8 1 43.5 2 64.7-18.6-1.6-36.8-3.6-55.6-5zm-274.7 50q-11 0.4-21.9 1c-1.7-18-3.8-35.6-5.6-53.6q13.9 0.2 27.5 0.5 13.7-0.3 27.4-0.5c-1.7 18-3.8 35.6-5.5 53.6q-10.9-0.5-21.9-1zm21.5 2.6c-2.3 27.5-5.7 55.6-7.8 84-4.5 0.3-9.1 0.3-13.7 0.1-4.6 0.2-9.2 0.2-13.7-0.1-2.1-28.4-5.5-56.5-7.8-84q10.6-0.6 21.5-1 10.9 0.4 21.5 1zm-21.5-454.8q11-0.4 21.9-1c1.7 18 3.8 35.6 5.5 53.6q-13.8-0.1-27.4-0.5-13.7 0.3-27.5 0.5c1.8-18 3.9-35.6 5.6-53.6q10.9 0.6 21.9 1zm-21.5-2.5c2.3-27.6 5.7-55.7 7.8-84.1 4.5-0.3 9.1-0.2 13.7-0.1 4.6-0.1 9.2-0.2 13.7 0.1 2.1 28.4 5.5 56.6 7.8 84.1q-10.6 0.6-21.5 1-10.9-0.4-21.5-1zm350.6 181.1q-14.1 0-27.9 0.6c-9.4 0.5-18.5 0.2-27.5 1-0.3 0.1-0.5 0.3-0.8 0.2-1.2-0.3-0.7-1.6-0.8-3.6-0.9-19.4 0.1-42.3 0.8-61.1 18.4-1.5 36.9-3 55.4-4.4-0.4 22.6 0 45.3 0.8 67.3zm119.6-130.2c-18.6-1.4-36.7-3.3-55-5-0.9-24.7-2.1-49.2-3.2-73.8 20.1 1.4 39.3 3.6 58.8 5.6v69.1c0 1.4 0.4 3.6-0.6 4.1zm0.6 1.6c0.1 21.9 0.8 43.1 1.7 64.1q-27.6-2.1-55.3-4.4c-0.4-21.7-1-43.4-2-64.7 18.6 1.6 36.8 3.6 55.6 5zm-53.6 61.3c18.5 1.4 36.9 2.9 55.3 4.4 0.8 18.8 1.7 41.7 0.8 61.1-0.1 2 0.5 3.3-0.8 3.6-0.3 0.1-0.5-0.1-0.8-0.2-8.9-0.8-18.1-0.5-27.4-1q-13.8-0.6-27.9-0.6c0.8-22 1.2-44.7 0.8-67.3zm57.6 70.7c17.2 0.8 34.4 1.7 51.9 2.2-0.6 13.8-1.5 27.7-1.7 41.9 0.2 14.2 1.1 28.1 1.7 41.9-17.5 0.5-34.7 1.4-51.9 2.2-0.4-15.6-2.3-29.7-3.9-44.1 1.6-14.3 3.5-28.5 3.9-44.1zm229.7 76.9c-16.5 0.8-33.3 2.5-49.6 3 1.6-12.1 3-24.3 5.1-35.8-2.1-11.5-3.5-23.7-5.1-35.7 16.3 0.5 33.1 2.1 49.6 3-0.6 10.6-0.9 21.6-0.9 32.7-0.1 11.1 0.3 22.2 0.9 32.8zm-46.1-32.8c-2.1 11.7-3.5 24-5.3 36-19.9 1.3-40.4 2.3-60.9 3.1 1.4-12.9 2.8-25.9 4-39.1-1.2-13.2-2.6-26.1-4-39.1 20.5 0.9 41 1.8 60.9 3.2 1.8 11.9 3.2 24.3 5.3 35.9zm-67.8 39.3c-20.9 0.7-41.3 1.9-62.3 2.4-0.6-13.7-1.6-27.6-1.8-41.7 0.2-14 1.2-28 1.8-41.7 21 0.6 41.4 1.7 62.3 2.4 1.4 13.1 2.9 26.1 4 39.3-1.1 13.3-2.6 26.3-4 39.3zm1.4-80c-1.6-19.8-3.7-39.3-5-59.5 20.2 1.5 40.4 2.9 61.2 3.8 0.2 15.5 1.8 30.7 3.4 44.8 0.5 4.7 1.2 9.5 1.1 14.1-19.9-1.4-40.3-2.2-60.7-3.2zm56.2-57.1h-0.4c-20.4-1.3-41-2.3-61-4-1.6-22.7-3.2-45.3-3.6-69.3 21.8 0.4 44 0.8 65.9 0.4-0.6 23.9-1.1 48.1-0.9 72.9zm-57.8 57.1h-0.4c-20.3-1.1-41-1.8-61.7-2.6 1.2-20.4 2.4-40.9 3.2-61.7 17.9 1.6 35.6 3.4 53.9 4.6 1.3 20.2 3.4 39.8 5 59.7zm-63.5-2.8c-17.6-0.4-34.8-1.3-52-2.2 0.5-21.5 0.3-43.8-0.7-64.5 18.7 1.6 37.1 3.4 55.7 5-0.6 20.9-2.1 41-3 61.7zm-52 89.2c17.2-0.8 34.4-1.7 52-2.2 0.9 20.7 2.4 40.8 3 61.7-18.6 1.7-37 3.5-55.7 5 1-20.6 1.2-43 0.7-64.5zm53.4-2.4c20.7-0.8 41.4-1.4 61.7-2.6h0.4c-1.6 20-3.7 39.5-5 59.8-18.3 1.1-36 3-53.9 4.6-0.8-20.9-2-41.4-3.2-61.8zm58.5 58.6c20-1.7 40.6-2.7 61-4h0.4c-0.2 24.7 0.2 48.9 1 72.9-22-0.5-44.2-0.1-65.9 0.4 0.3-24 1.9-46.6 3.5-69.3zm61.4-5.4c-20.8 0.9-41 2.3-61.2 3.8 1.3-20.3 3.3-39.7 5-59.6 20.4-0.9 40.8-1.8 60.7-3.1 0.1 4.5-0.6 9.3-1.2 14.1-1.6 14-3.1 29.2-3.3 44.8zm1.5 1.4c19.6-1 39.1-2 59-2.6 2 26 4.8 51.3 7.6 76.6q-32.7-0.7-65.8-1.1c-0.3-24.2-1-48.1-0.8-72.9zm0-1.6c0.5-20.8 2.6-39.9 5-58.7 16.7-1 33.1-2.3 49.8-3.2q1.7 29.9 4 59.3c-19.8 0.7-39.2 1.7-58.8 2.6zm5-133.8c-2.4-18.9-4.5-38-5-58.7 19.6 0.9 39 1.9 58.8 2.5q-2.3 29.4-4 59.4c-16.7-1-33.1-2.2-49.8-3.2zm-5-60.3c-0.2-24.8 0.5-48.7 0.8-72.9q33.1-0.4 65.8-1.2c-2.8 25.3-5.6 50.6-7.6 76.7-19.9-0.6-39.4-1.7-59-2.6zm1.2-74.5c-0.2 0-0.2-0.3-0.2-0.6 0.4-19.9 1.3-39.1 2.4-58.1 22.7 1.6 45.7 2.8 68.9 3.9-1.7 18-3.8 35.7-5.6 53.6q-32.4 0.8-65.5 1.2zm-1.8 0c-21.8 0.4-44.9 0.4-66.1-0.6-0.1-22.1 0.1-44 1.2-64.9 22 2.7 44.4 4.9 67.3 6.6-1.1 19.3-2 38.8-2.3 58.9zm-64 70.3c-18.2-1.2-35.9-2.9-53.7-4.6 1-21.7 1.6-43.9 2.2-66.1 15.7 0.8 31.9 1.1 47.9 1.6 0.5 23.8 2 46.5 3.7 69.1zm-3.6-70.7c-16.1-0.3-31.8-1-47.8-1.4 0.4-23.3 1.5-46.1 2.2-69.3 15.5 1.9 30.8 3.8 46.6 5.4-0.9 21.1-1.6 43.4-1 65.3zm-49.4-1.6c-20.3-0.7-40.2-1.9-59.9-3.2v-73.2c20.8 2.3 41.5 4.8 62.3 7.1-1.1 22.8-1.7 46.1-2.4 69.3zm0 1.6c-0.8 21.9-1.4 44-2.2 65.9-18.7-1.5-37.2-3.4-55.9-5-1-21-1.8-42.1-1.8-64.1 19.8 1.3 39.7 2.5 59.9 3.2zm-116.6 56.2c-10.4-0.5-21.2-1.2-32.1-1.8-11 0.6-21.8 1.3-32.1 1.8 0.3-21.9 0.9-43.5 1.9-64.7 10.1-1 20.1-2 30.2-3 10 1 20.1 2 30.1 3 1 21.2 1.6 42.8 2 64.7zm-64 1.8q15.6-1.3 31.9-2 16.2 0.7 31.9 2c0.9 22.1 0.1 45.5-0.6 67.3q-15.4-0.2-31.3-0.2-16 0-31.3 0.2c-0.7-21.8-1.6-45.2-0.6-67.3zm63.2 68.9c-0.6 15.5-1.3 30.9-2.5 45.8 1.2 15 1.9 30.4 2.5 45.9-10.3 0.3-20.8 0.3-31.3 0.2-10.6 0.1-21.1 0.1-31.3-0.2 0.5-15.5 1.3-30.9 2.5-45.9-1.2-14.9-2-30.3-2.5-45.8 10.2-0.3 20.7-0.3 31.3-0.3 10.5 0 21 0 31.3 0.2zm-61.7 45.9c-1.2 14.9-1.9 30.2-2.5 45.7-19.2 0.5-38.4-0.7-56.8-1.6 0.4-15.1 2.2-29.6 3.8-44.1-1.6-14.6-3.4-29-3.8-44.1 18.4-0.9 37.6-2.1 56.8-1.6 0.6 15.4 1.3 30.8 2.5 45.7zm-3.3 114.8c-18.6-1.4-37-2.9-55.4-4.4-0.8-18.8-1.7-41.7-0.8-61.1 0.1-2-0.4-3.3 0.8-3.6 0.3-0.1 0.5 0.2 0.8 0.2 9 0.8 18.1 0.6 27.5 1q13.8 0.6 27.9 0.6c-0.8 22-1.2 44.7-0.8 67.3zm-57.8-160.5c-17.2 0.9-34.3 1.7-51.9 2.2-0.9-20.8-2.4-40.8-3-61.8 18.6-1.6 37-3.4 55.7-4.9-1 20.6-1.2 43-0.8 64.5zm-229.5 12.9c16.5-0.8 33.3-2.5 49.6-3-1.6 12.1-3 24.3-5.1 35.8 2.1 11.5 3.5 23.7 5.1 35.7-16.3-0.5-33.1-2.1-49.6-3 0.5-10.6 0.9-21.6 0.9-32.7 0-11.1-0.4-22.2-0.9-32.8zm46.1 32.8c2.1-11.7 3.5-24 5.2-36 20-1.3 40.5-2.2 61-3.1-1.4 13-2.8 25.9-4 39.1 1.2 13.2 2.6 26.1 4 39.1-20.5-0.9-41-1.8-61-3.2-1.7-11.9-3.1-24.3-5.2-35.9zm63.7 0c1.2-13.3 2.7-26.3 4-39.3 20.9-0.7 41.4-1.8 62.4-2.4 0.6 13.7 1.5 27.6 1.8 41.7-0.3 14.1-1.2 28-1.8 41.7-21-0.6-41.5-1.7-62.4-2.4-1.3-13.1-2.8-26.1-4-39.3zm66.4-43.3c-20.7 0.8-41.4 1.5-61.7 2.6h-0.4c1.6-20 3.6-39.5 4.9-59.8 18.4-1.1 36-3 54-4.5 0.8 20.8 1.9 41.3 3.2 61.7zm-58.6-58.6c-19.9 1.7-40.5 2.7-60.9 4h-0.4c0.1-24.7-0.3-48.9-1-72.8 22 0.4 44.2 0 65.9-0.4-0.3 23.9-1.9 46.6-3.6 69.2zm-61.3 5.4c20.8-0.8 41-2.2 61.1-3.8-1.2 20.3-3.3 39.7-4.9 59.6-20.4 0.9-40.8 1.8-60.8 3.2 0-4.6 0.7-9.4 1.2-14.2 1.6-14 3.1-29.2 3.4-44.8zm-1.6-1.4c-19.5 1-39 2-58.9 2.6-2.1-26-4.9-51.3-7.6-76.6q32.7 0.7 65.7 1.2c0.4 24.1 1 48 0.8 72.8zm0 1.6c-0.5 20.8-2.6 39.9-5 58.8-16.6 1-33 2.2-49.8 3.1q-1.7-29.9-3.9-59.3c19.7-0.7 39.2-1.7 58.7-2.6zm-5 133.8c2.4 18.9 4.5 38 5 58.8-19.5-1-39-2-58.7-2.6q2.2-29.4 3.9-59.4c16.7 1 33.2 2.2 49.8 3.2zm5 60.3c0.2 24.8-0.4 48.7-0.8 72.9q-33 0.4-65.7 1.2c2.7-25.3 5.5-50.6 7.6-76.6 19.9 0.6 39.3 1.6 58.9 2.5zm-1.8-46.1c-0.6-4.8-1.3-9.6-1.2-14.2 19.9 1.4 40.3 2.3 60.7 3.2 1.7 19.9 3.7 39.3 5 59.5-20.1-1.5-40.4-2.9-61.1-3.7-0.3-15.6-1.8-30.8-3.4-44.8zm3.4 46.1h0.4c20.3 1.3 40.9 2.3 60.9 4 1.6 22.7 3.2 45.3 3.6 69.3-21.8-0.4-44-0.8-65.9-0.4 0.7-23.9 1.1-48.1 1-72.9zm57.7-57.1h0.4c20.3 1.1 41.1 1.8 61.7 2.6-1.2 20.4-2.3 40.9-3.2 61.7-17.9-1.6-35.6-3.4-53.9-4.6-1.3-20.2-3.4-39.7-5-59.7zm63.5 2.8c17.6 0.4 34.8 1.3 52 2.2-0.4 21.5-0.3 43.8 0.8 64.5-18.7-1.5-37.1-3.4-55.8-5 0.7-20.9 2.2-41 3-61.7zm52.2 0.6c-17.2-0.8-34.4-1.7-52-2.2 0.6-13.8 1.5-27.7 1.8-41.9-0.3-14.2-1.2-28.1-1.8-41.9 17.6-0.5 34.8-1.4 52-2.2 0.4 15.6 2.2 29.8 3.8 44.1-1.6 14.4-3.4 28.5-3.8 44.1zm0.6-155.9c-18.7 1.6-37.2 3.4-55.9 5-0.8-21.9-1.4-44.1-2.2-65.9 20.3-0.8 40.1-2 59.9-3.2 0 21.9-0.8 43.1-1.8 64.1zm-57.3 5.2c-17.8 1.6-35.5 3.4-53.8 4.5 1.6-22.6 3.2-45.2 3.6-69 16.1-0.5 32.3-0.9 48-1.6 0.6 22.2 1.2 44.3 2.2 66.1zm-51.6-66.3c-21.2 0.9-44.2 0.9-66.1 0.6-0.3-20.1-1.3-39.6-2.4-59 23-1.6 45.4-3.9 67.3-6.5 1.2 20.8 1.3 42.7 1.2 64.9zm-67.6 0c0 0.2 0 0.5-0.2 0.6q-33.1-0.4-65.6-1.2c-1.7-18-3.8-35.6-5.5-53.6 23.1-1.1 46.2-2.4 68.8-4 1.2 19 2.1 38.3 2.5 58.2zm-94.8 0.4q13.8 0.3 27.7 0.6c2.7 25.4 5.6 50.6 7.5 76.8-11.8 0.4-23.4 0.9-35.2 1.3-11.8-0.4-23.4-0.9-35.2-1.3 2-26.2 4.8-51.4 7.6-76.8q13.8-0.3 27.6-0.6zm0 80.2c11.9-0.4 23.8-1 35.4-1 1.7 19.4 2.9 39.2 4 59.1-13.1 1-26.2 2-39.4 2.9-13.1-0.9-26.2-1.9-39.4-2.9 1.1-19.9 2.4-39.7 4-59.1 11.7 0 23.5 0.6 35.4 1zm0 62.6c13.3-1 26.5-2.1 39.4-2.7 0.7 10.4 1 21.4 1 32.4 0 11-0.3 22-1 32.3-12.9-0.5-26.1-1.7-39.4-2.6-13.2 0.9-26.5 2.1-39.4 2.6-0.6-10.3-1-21.3-1-32.3 0-11 0.4-22 1-32.4 12.9 0.6 26.2 1.7 39.4 2.7zm0 60.9c13.2 1 26.3 2 39.4 2.9-1.1 20-2.3 39.8-4 59.2-11.6 0-23.5-0.6-35.4-1.1-11.9 0.5-23.7 1.1-35.4 1.1-1.6-19.4-2.9-39.2-4-59.2 13.2-0.9 26.3-1.9 39.4-2.9zm0 62.6c11.8 0.4 23.4 0.9 35.2 1.3-1.9 26.1-4.8 51.4-7.5 76.8q-13.9 0.2-27.7 0.5-13.8-0.2-27.6-0.5c-2.8-25.4-5.6-50.7-7.6-76.8 11.8-0.4 23.4-0.9 35.2-1.3zm29.1 79.7q32.5-0.8 65.5-1.2c0.2 0 0.2 0.3 0.2 0.6-0.3 19.9-1.2 39.1-2.4 58.1-22.7-1.6-45.7-2.8-68.9-3.9 1.7-18 3.8-35.7 5.6-53.6zm67.3-1.2c21.8-0.4 44.9-0.3 66.1 0.6 0.1 22.1-0.1 44-1.2 64.9-22-2.6-44.4-4.9-67.3-6.6 1.1-19.3 2-38.8 2.4-58.9zm63.9-70.3c18.3 1.2 35.9 3 53.7 4.6-1 21.7-1.6 43.9-2.1 66.1-15.8-0.8-32-1.1-48-1.6-0.4-23.8-2-46.5-3.6-69.1zm3.6 70.7c16.1 0.3 31.8 1 47.7 1.4-0.4 23.4-1.4 46.2-2.1 69.3-15.6-1.8-30.9-3.8-46.6-5.4 0.9-21.1 1.6-43.4 1-65.3zm49.3 1.6c20.4 0.7 40.2 1.9 60 3.2v73.2c-20.8-2.3-41.5-4.8-62.4-7.1 1.1-22.8 1.8-46.1 2.4-69.3zm0-1.6c0.9-21.9 1.4-44 2.2-65.9 18.8 1.5 37.2 3.4 56 5 0.9 21 1.7 42.2 1.8 64.1-19.8-1.3-39.7-2.5-59.9-3.2zm116.6-56.2c10.4 0.6 21.2 1.2 32.1 1.8 11-0.6 21.8-1.2 32.2-1.8-0.4 21.9-1 43.6-2 64.8-10.1 1-20.1 2-30.2 2.9-10-0.9-20.1-1.9-30.1-2.9-1-21.2-1.6-42.9-2-64.8zm64.1-1.8q-15.7 1.3-32 2-16.2-0.7-31.9-2c-0.9-22.1-0.1-45.5 0.6-67.3q15.4 0.2 31.3 0.2 16 0 31.4-0.2c0.6 21.8 1.5 45.2 0.6 67.3zm-1.6-114.7c1.2-14.9 1.9-30.3 2.5-45.7 19.2-0.5 38.4 0.7 56.8 1.6-0.4 15.1-2.2 29.5-3.8 44.1 1.6 14.5 3.4 29 3.8 44.1-18.4 0.9-37.6 2.1-56.8 1.6-0.6-15.5-1.3-30.8-2.5-45.7zm60.3 111.8c18.7-1.6 37.2-3.4 55.9-5 0.8 21.9 1.4 44 2.2 65.9-20.3 0.7-40.1 1.9-59.9 3.2 0-21.9 0.8-43.1 1.8-64.1zm57.3-5.2c17.8-1.6 35.5-3.4 53.8-4.6-1.6 22.6-3.2 45.3-3.6 69.1-16 0.5-32.2 0.8-48 1.6-0.6-22.2-1.1-44.4-2.2-66.1zm51.6 66.3c21.2-0.9 44.2-0.9 66.1-0.6 0.4 20.1 1.3 39.6 2.4 58.9-23 1.7-45.3 4-67.3 6.6-1.2-20.9-1.3-42.8-1.2-64.9zm67.7 0c0-0.3 0-0.6 0.2-0.6q33 0.3 65.5 1.2c1.8 17.9 3.9 35.6 5.6 53.6-23.2 1.1-46.3 2.3-68.9 4-1.2-19.1-2.1-38.3-2.4-58.2zm94.7-0.5q-13.8-0.2-27.6-0.5c-2.8-25.4-5.6-50.7-7.6-76.8 11.8-0.4 23.4-0.9 35.2-1.3 11.8 0.4 23.4 0.9 35.2 1.3-1.9 26.1-4.8 51.4-7.5 76.8-9.3 0.2-18.5 0.3-27.7 0.5zm0-80.2c-11.9 0.5-23.7 1.1-35.4 1.1-1.6-19.4-2.9-39.2-4-59.2 13.2-0.9 26.3-1.9 39.4-2.9 13.2 1 26.3 2 39.4 2.9-1.1 20-2.3 39.8-4 59.2-11.6 0-23.5-0.6-35.4-1.1zm0-62.5c-13.2 0.9-26.5 2.1-39.4 2.6-0.6-10.3-1-21.3-1-32.3 0-11 0.4-22 1-32.4 12.9 0.6 26.2 1.7 39.4 2.7 13.3-1 26.5-2.1 39.4-2.7 0.7 10.4 1 21.4 1 32.4 0 11-0.3 22-1 32.3-12.9-0.5-26.1-1.7-39.4-2.6zm0-61c-13.1-0.9-26.2-1.9-39.4-2.9 1.1-19.9 2.4-39.7 4-59.1 11.7-0.1 23.5 0.6 35.4 1 11.9-0.4 23.8-1.1 35.4-1 1.7 19.4 2.9 39.2 4 59.1-13.1 1-26.2 2-39.4 2.9zm0-62.5c-11.8-0.4-23.4-0.9-35.2-1.3 2-26.2 4.8-51.4 7.6-76.8q13.8-0.3 27.6-0.6c9.2 0.2 18.4 0.4 27.7 0.6 2.7 25.4 5.6 50.6 7.5 76.8-11.8 0.4-23.4 0.9-35.2 1.3zm0-80.2q-13.6 0.3-27.4 0.5c1.7-18 3.8-35.6 5.6-53.6q10.8 0.5 21.8 1 11-0.5 21.9-1c1.8 18 3.9 35.6 5.6 53.6q-13.8-0.2-27.5-0.5zm0-53.7q-10.8-0.4-21.4-1c2.3-27.5 5.6-55.6 7.7-84 4.5-0.3 9.1-0.2 13.7-0.1 4.7-0.1 9.2-0.2 13.7 0.1 2.1 28.4 5.5 56.5 7.8 84q-10.6 0.6-21.5 1zm0-86.6c-4.6 0-9.1-0.1-13.3-0.2 1.1-15.4 2.4-31.5 3.6-47.5-1.2-16-2.5-32.2-3.6-47.5 4.2-0.2 8.7-0.2 13.3-0.2 4.6-0.1 9.1 0 13.3 0.2-1 15.3-2.4 31.5-3.6 47.5 1.2 16 2.6 32.1 3.6 47.5-4.2 0.1-8.7 0.2-13.3 0.2zm-11.2-47.7c-1.2 15.9-2.5 31.6-3.7 47.5-23.6-0.1-46.7-0.7-69.7-1.4 1.8-15.7 3.8-31 6.1-46.1-2.3-15.1-4.3-30.5-6.1-46.1 23-0.8 46.1-1.4 69.7-1.4 1.2 15.9 2.5 31.6 3.7 47.5zm-3.9 49.1c-2.5 28.2-5.2 56.4-8.1 84.2-23.3-1.2-46.8-2-69.1-4.2 2-27.6 4.2-55.1 7.5-81.4 23.1 0.7 46.2 1.3 69.7 1.4zm-78.6 80c-23.1-1.5-45.5-3.9-67.5-6.5 1.3-26.4 2.9-52.5 5.8-77.3 22.8 1 46.1 1.5 69 2.4-3.1 26.4-5.6 53.5-7.3 81.4zm-68.5-16.3c-0.2 3.2-0.1 6.5-1 9.6q-23.2-2.6-46-5.4c0.8-25 2.1-49.5 3.6-73.9 15.9 1 32.3 1.6 48.6 2.2-2.4 21.7-4.2 44.8-5.2 67.5zm-47.8-13.9c-0.2 4.5-0.1 11.3-0.8 16.3-0.3 2-0.3 1.6-1.8 1.4-19.6-2.8-40.4-4.3-60.5-7 0.3-23.8 1-47.3 2.4-70.1q31.7 1.9 63.5 3.6c-1.1 17.4-2 37.2-2.8 55.8zm-64.9 10.5c-19.4-2-38.7-4.1-58.7-5.6-0.9-22.5-2.2-44.7-3.4-66.8 22.1 0.3 43.4 1.4 64.7 2.5-1.4 22.8-1.8 46.6-2.6 69.9zm-56.9 69.5c-9.9-0.7-20-1.7-30.1-2.7-10.2 1-20.3 2-30.2 2.7 0.9-24.7 2.1-49.1 3.2-73.6 8.5-0.5 17.8-1 27-1.1 9.1 0.1 18.4 0.6 26.9 1.1 1.1 24.4 2.3 48.9 3.2 73.6zm-61.9 0.4c-18.3 1.7-36.4 3.5-54.9 5-1.1-0.5-0.6-2.7-0.6-4.2v-69.1c19.4-2 38.7-4.2 58.7-5.6-1 24.6-2.2 49.1-3.2 73.9zm-55.5 6.6c18.8-1.4 37-3.4 55.5-5-0.9 21.2-1.5 42.9-1.9 64.7q-27.7 2.2-55.4 4.4c0.9-21.1 1.7-42.3 1.8-64.2zm-1.6-1.4c-19.7 1.4-39.6 2.5-59.9 3.2-0.7-23.2-1.3-46.5-2.4-69.3 20.8-2.3 41.5-4.8 62.3-7.1zm-61.5 3.4c-16 0.4-31.7 1-47.8 1.4 0.6-22-0.1-44.3-1-65.3 15.7-1.7 31.1-3.6 46.6-5.4 0.7 23.1 1.7 45.9 2.2 69.2zm-48.4-65.5c-0.9-3-0.8-6.4-1-9.5-1-22.8-2.8-45.9-5.2-67.5 16.3-0.7 32.7-1.2 48.6-2.2 1.5 24.4 2.8 48.9 3.6 73.8q-22.8 2.9-46 5.4zm-1.9 0.2c-22.1 2.7-44.4 5-67.5 6.6-1.7-27.9-4.2-55-7.4-81.5 22.9-0.9 46.2-1.4 69.1-2.4 2.9 24.8 4.5 51 5.8 77.3zm-68.9 6.6c-22.3 2.1-45.8 3-69.1 4.2-3-27.9-5.6-56-8.2-84.3 23.6-0.1 46.7-0.7 69.7-1.3 3.4 26.3 5.6 53.8 7.6 81.4zm-77.4-81.6c-1.2-15.9-2.5-31.7-3.7-47.6 1.2-15.8 2.5-31.6 3.7-47.5 23.6 0.1 46.7 0.7 69.6 1.4-1.7 15.7-3.8 31-6.1 46.1 2.3 15.1 4.4 30.5 6.1 46.2-22.9 0.7-46 1.3-69.6 1.4zm-5.2-47.6c1.2 16.1 2.5 32.2 3.6 47.6-4.2 0.1-8.7 0.1-13.3 0.2-4.6 0-9.1-0.1-13.3-0.2 1.1-15.4 2.4-31.5 3.6-47.6-1.2-16-2.5-32.1-3.6-47.5 4.2-0.1 8.7-0.2 13.3-0.2 4.6 0 9.1 0.1 13.3 0.2-1 15.4-2.4 31.5-3.6 47.5zm-20.9 0c-1.2 15.9-2.5 31.7-3.7 47.6-23.6-0.1-46.7-0.7-69.7-1.4 1.8-15.7 3.8-31.1 6.1-46.2-2.3-15.1-4.3-30.4-6.1-46.1 23-0.7 46.1-1.3 69.7-1.4 1.2 15.9 2.5 31.7 3.7 47.5zm-3.9 49.1c-2.5 28.3-5.2 56.4-8.1 84.3-23.3-1.2-46.8-2.1-69.1-4.2 2-27.6 4.2-55.1 7.5-81.5 23.1 0.7 46.2 1.3 69.7 1.4zm-8.3 85.8c-1.8 18-3.8 35.7-5.6 53.6q-32.5 0.9-65.5 1.2c-0.2 0-0.2-0.3-0.2-0.6 0.3-19.8 1.2-39.1 2.4-58.1 22.6 1.6 45.7 2.8 68.9 4zm-5.8 55.1c-2.7 25.4-5.5 50.6-7.6 76.7-19.9-0.6-39.4-1.7-58.9-2.6-0.2-24.8 0.4-48.7 0.8-72.9q33-0.4 65.7-1.2zm-7.8 78.3q-2.3 29.3-4 59.3c-16.7-0.9-33.1-2.2-49.7-3.2-2.4-18.8-4.6-37.9-5-58.7 19.5 0.9 39 1.9 58.7 2.6zm-4 60.9c-0.5 10.6-0.9 21.7-0.9 32.8 0 11.1 0.4 22.1 0.9 32.7-16.5 0.9-33.3 2.5-49.5 3 1.5-12 2.9-24.2 5-35.7-2.1-11.5-3.5-23.7-5-35.8 16.2 0.5 33 2.2 49.5 3zm0 67.1q1.7 30 4 59.4c-19.7 0.6-39.2 1.6-58.7 2.6 0.4-20.8 2.6-39.9 5-58.8 16.6-1 33-2.2 49.7-3.1zm4.2 60.9c2.1 26 4.9 51.3 7.6 76.6q-32.7-0.7-65.7-1.2c-0.4-24.1-1-48.1-0.8-72.8 19.5-1 39-2 58.9-2.6zm-57.7 77.1q33 0.3 65.5 1.2c1.8 17.9 3.8 35.5 5.6 53.5-23.2 1.1-46.3 2.4-68.9 4-1.2-19-2.1-38.3-2.4-58.1 0-0.3 0-0.6 0.2-0.6zm71.3 56.3c2.9 27.8 5.6 56 8.1 84.2-23.5 0.2-46.6 0.7-69.7 1.4-3.3-26.3-5.5-53.8-7.5-81.4 22.3-2.1 45.8-3 69.1-4.2zm8.3 85.8c1.2 15.9 2.5 31.7 3.7 47.5-1.2 15.9-2.5 31.7-3.7 47.6-23.6-0.1-46.7-0.7-69.7-1.4 1.8-15.7 3.8-31 6.1-46.2-2.3-15.1-4.3-30.4-6.1-46.1 23-0.7 46.1-1.3 69.7-1.4zm5.2 47.6c-1.2-16.1-2.5-32.2-3.6-47.6 4.2-0.1 8.7-0.1 13.3-0.2 4.6 0 9.1 0.1 13.4 0.2-1.1 15.4-2.5 31.5-3.7 47.6 1.3 16 2.6 32.1 3.7 47.5-4.3 0.1-8.8 0.2-13.4 0.2-4.6 0-9.1-0.1-13.3-0.2 1.1-15.4 2.4-31.5 3.6-47.5zm21 0c1.2-15.9 2.5-31.7 3.6-47.6 23.7 0.1 46.8 0.7 69.7 1.4-1.7 15.7-3.8 31.1-6.1 46.2 2.3 15.1 4.4 30.4 6.1 46.1-22.9 0.7-46 1.3-69.7 1.4-1.1-15.9-2.4-31.7-3.6-47.5zm3.8-49.1c2.6-28.3 5.2-56.4 8.2-84.3 23.3 1.2 46.8 2.1 69.1 4.2-2.1 27.6-4.3 55.1-7.6 81.4-23-0.6-46.1-1.2-69.7-1.3zm78.7-80.1c23.1 1.6 45.5 3.9 67.5 6.6-1.3 26.3-2.9 52.5-5.8 77.2-22.9-0.9-46.2-1.4-69.1-2.4 3.2-26.4 5.7-53.5 7.4-81.4zm68.5 16.3c0.1-3.1 0.1-6.5 1-9.5q23.1 2.5 45.9 5.4c-0.8 24.9-2.1 49.5-3.5 73.8-16-1-32.3-1.5-48.6-2.2 2.4-21.6 4.2-44.7 5.2-67.5zm47.8 14c0.2-4.5 0-11.3 0.7-16.3 0.3-2 0.4-1.6 1.8-1.4 19.7 2.7 40.5 4.2 60.6 6.9-0.3 23.9-1 47.3-2.4 70.1q-31.7-1.9-63.5-3.6c1.1-17.4 1.9-37.1 2.7-55.7zm65-10.6c19.4 2 38.7 4.2 58.7 5.6 0.9 22.5 2.1 44.7 3.4 66.9-22.2-0.3-43.4-1.5-64.7-2.6 1.4-22.7 1.7-46.6 2.5-69.9zm57-69.5c9.8 0.7 19.9 1.8 30.1 2.8 10.2-1 20.3-2.1 30.1-2.8-0.9 24.8-2 49.2-3.1 73.7-8.6 0.5-17.8 1-27 1-9.2 0-18.4-0.5-26.9-1-1.2-24.5-2.3-48.9-3.2-73.7zm61.8-0.4c18.3-1.6 36.4-3.5 55-4.9 1.1 0.5 0.6 2.7 0.6 4.1v69.1c-19.5 2-38.7 4.2-58.8 5.6 1.1-24.6 2.3-49.1 3.2-73.9zm55.6-6.5c-18.8 1.4-37 3.3-55.6 4.9 1-21.2 1.6-42.9 2-64.7q27.7-2.1 55.4-4.3c-1 21-1.7 42.2-1.8 64.1zm1.5 1.4c19.8-1.3 39.6-2.5 60-3.2 0.6 23.2 1.3 46.5 2.4 69.3-20.8 2.3-41.6 4.8-62.4 7.1zm61.6-3.4c16-0.4 31.7-1 47.8-1.3-0.6 21.9 0.1 44.2 1 65.3-15.7 1.6-31.1 3.5-46.6 5.3-0.8-23.1-1.8-45.9-2.2-69.2zm48.3 65.5c0.9 3 0.9 6.3 1 9.5 1 22.8 2.8 45.8 5.2 67.5-16.3 0.7-32.6 1.2-48.6 2.2-1.4-24.4-2.7-48.9-3.5-73.9q22.8-2.8 45.9-5.3zm2-0.2c22-2.7 44.4-5 67.5-6.6 1.7 27.9 4.2 55 7.4 81.4-22.9 1-46.3 1.4-69.1 2.4-2.9-24.8-4.5-50.9-5.8-77.2zm68.9-6.6c22.3-2.1 45.8-3 69.1-4.2 2.9 27.8 5.6 56 8.1 84.2-23.5 0.2-46.6 0.8-69.7 1.4-3.3-26.3-5.5-53.8-7.6-81.4zm77.5 81.6c1.2 15.9 2.5 31.7 3.7 47.5-1.2 15.9-2.5 31.7-3.7 47.6-23.6-0.1-46.7-0.7-69.7-1.4 1.8-15.7 3.8-31 6.1-46.2-2.3-15.1-4.3-30.4-6.1-46.1 22.9-0.7 46-1.3 69.7-1.4zm5.1 47.5c-1.2-16-2.5-32.1-3.6-47.5 4.2-0.1 8.7-0.2 13.3-0.2 4.6 0 9.1 0.1 13.4 0.2-1.1 15.4-2.5 31.5-3.7 47.5 1.3 16.1 2.6 32.2 3.7 47.6-4.3 0.1-8.8 0.1-13.4 0.2-4.6 0-9.1-0.1-13.3-0.2 1.1-15.4 2.4-31.5 3.6-47.6zm21 0c1.2-15.8 2.5-31.6 3.6-47.5 23.7 0.1 46.8 0.7 69.7 1.4-1.7 15.7-3.8 31-6.1 46.1 2.3 15.2 4.4 30.5 6.1 46.2-22.9 0.7-46 1.3-69.7 1.4-1.1-15.9-2.4-31.7-3.6-47.6zm3.8-49.1c2.6-28.2 5.2-56.4 8.2-84.2 23.3 1.2 46.8 2.1 69.1 4.2-2.1 27.6-4.3 55.1-7.6 81.4-23-0.6-46.1-1.2-69.7-1.4zm8.4-85.8c1.7-18 3.8-35.6 5.6-53.5q32.5-0.9 65.5-1.2c0.2 0 0.2 0.3 0.2 0.6-0.3 19.8-1.2 39.1-2.4 58.1-22.7-1.6-45.7-2.9-68.9-4zm5.8-55.1c2.7-25.4 5.5-50.7 7.6-76.7 19.9 0.6 39.4 1.6 58.9 2.6 0.2 24.8-0.4 48.7-0.8 72.9q-33 0.4-65.7 1.1zm7.7-78.2q2.3-29.4 4-59.3c16.7 0.9 33.1 2.1 49.8 3.2 2.4 18.8 4.5 37.9 5 58.7-19.6-0.9-39-1.9-58.8-2.6zm4-60.9c0.6-10.7 0.9-21.7 1-32.8 0-11.1-0.4-22.1-1-32.7 16.5-0.9 33.3-2.6 49.6-3-1.6 12-3 24.2-5.1 35.7 2.1 11.5 3.5 23.7 5.1 35.7-16.3-0.5-33.1-2.1-49.6-3zm0-67.1q-1.7-29.9-4-59.3c19.8-0.7 39.2-1.7 58.7-2.6-0.4 20.8-2.5 39.9-4.9 58.8-16.7 0.9-33.1 2.2-49.8 3.1zm-4.2-60.9c-2-26-4.9-51.3-7.6-76.7q32.7 0.8 65.7 1.2c0.4 24.2 1.1 48.1 0.8 72.9-19.5 1-39 2-58.9 2.6zm57.7-77.1q-33-0.3-65.5-1.2c-1.8-17.9-3.9-35.5-5.6-53.6 23.2-1.1 46.3-2.3 68.9-3.9 1.2 19 2.1 38.2 2.4 58.1 0 0.3 0 0.6-0.2 0.6zm-71.3-56.3c-2.9-27.9-5.6-56-8.1-84.2 23.5-0.2 46.6-0.8 69.6-1.4 3.4 26.3 5.6 53.8 7.6 81.4-22.3 2.1-45.8 3-69.1 4.2zm-8.3-85.8c-1.2-15.9-2.5-31.7-3.7-47.5 1.2-15.9 2.5-31.7 3.7-47.6 23.6 0.1 46.7 0.7 69.6 1.4-1.7 15.7-3.8 31-6.1 46.2 2.3 15.1 4.4 30.4 6.1 46.1-22.9 0.7-46 1.3-69.6 1.3zm0.2-96.6c2.5-28.2 5.2-56.4 8.1-84.2 23.3 1.2 46.8 2 69.1 4.2-2 27.6-4.2 55.1-7.6 81.4-23-0.7-46.1-1.3-69.6-1.4zm-1.4-0.2c-4.5 0.3-9.1 0.2-13.7 0.1-4.7 0.1-9.2 0.2-13.8-0.1-2-28.4-5.4-56.5-7.7-84q10.6-0.7 21.5-1.1 10.8 0.4 21.4 1c-2.3 27.5-5.7 55.7-7.7 84.1zm-28.9 0.2c-23.5 0.1-46.6 0.7-69.6 1.3-3.4-26.3-5.6-53.8-7.6-81.4 22.3-2.1 45.8-3 69.1-4.2 2.9 27.8 5.6 56 8.1 84.2zm-64.9 49.1c-2.2 15.2-4.5 30.4-6.1 46.1-23-0.7-45.8-1.6-68.9-2.2 1.2-15 3.5-29.7 6.2-43.9-2.7-14.2-5-28.9-6.2-43.9 23.1-0.6 45.9-1.5 68.9-2.2 1.6 15.7 3.9 30.9 6.1 46.1zm-70.4 0c-2.6 14.1-4.8 28.6-6.4 43.7-16.4-0.4-32.4-1.3-48.6-1.9 0.6-13.8 1.8-27.9 2.9-41.8-1.1-13.9-2.3-28-2.9-41.7 16.2-0.7 32.2-1.6 48.6-2 1.6 15.1 3.8 29.6 6.4 43.7zm-53.7 0c-1.1 13.7-2.2 27.4-2.9 41.6-21.3-1-42.1-2.6-63.5-3.4q1.1-19.5 3.1-38.2-2-18.7-3.1-38.2c21.4-0.8 42.2-2.4 63.5-3.3 0.7 14.1 1.8 27.8 2.9 41.5zm-64.9 0q-1.9 18.6-3.1 38c-21.3-1.1-42.6-2.2-64.7-2.6-1-11.4-1.4-23.4-1.7-35.4 0.3-12 0.7-24 1.7-35.4 22.1-0.4 43.3-1.5 64.7-2.6q1.2 19.4 3.1 38zm-121.3 103.9c-20 1.4-39.3 3.5-58.7 5.5-0.8-23.2-1.2-47.1-2.6-69.8 21.3-1.2 42.6-2.3 64.7-2.6-1.2 22.2-2.5 44.3-3.4 66.9zm-60.5 5.7c-20.1 2.8-40.9 4.2-60.5 7-1.5 0.2-1.5 0.6-1.8-1.4-0.7-5-0.6-11.8-0.8-16.3-0.8-18.6-1.7-38.4-2.8-55.8q31.8-1.7 63.5-3.5c1.4 22.7 2.1 46.2 2.4 70zm-66.1-68c-0.7-14.2-1.8-27.9-2.9-41.6 1.1-13.7 2.2-27.4 2.9-41.5 21.4 0.9 42.1 2.5 63.5 3.3q-1.1 19.5-3 38.2 1.9 18.7 3 38.2c-21.4 0.8-42.1 2.4-63.5 3.4zm-4.4-41.6c1.1 13.9 2.2 28 2.9 41.8-16.3 0.6-32.2 1.5-48.6 1.9-1.6-15.1-3.8-29.6-6.4-43.7 2.6-14.1 4.8-28.6 6.4-43.7 16.4 0.4 32.3 1.3 48.6 2-0.7 13.7-1.8 27.8-2.9 41.7zm-53.8 0c2.7 14.2 5.1 28.9 6.3 43.9-23.1 0.6-45.9 1.5-68.9 2.2-1.7-15.7-3.9-30.9-6.1-46.1 2.2-15.2 4.4-30.4 6.1-46.1 23 0.7 45.8 1.6 68.9 2.2-1.2 15-3.6 29.7-6.3 43.9zm-64-47.7c-23-0.7-46.1-1.3-69.7-1.4 2.6-28.2 5.2-56.4 8.2-84.2 23.2 1.1 46.8 2 69.1 4.2-2.1 27.6-4.3 55-7.6 81.4zm-71.1-1.6c-4.5 0.3-9.1 0.2-13.7 0.1-4.6 0.1-9.2 0.2-13.7-0.1-2.1-28.4-5.5-56.5-7.8-84q10.7-0.6 21.5-1 10.9 0.4 21.5 1c-2.3 27.5-5.7 55.6-7.8 84zm-28.8 0.2c-23.6 0.1-46.7 0.7-69.7 1.4-3.3-26.4-5.5-53.8-7.5-81.4 22.3-2.2 45.8-3.1 69-4.2 3 27.8 5.6 56 8.2 84.2zm-65 49.1c-2.2 15.2-4.4 30.4-6.1 46.1-22.9-0.7-45.8-1.6-68.9-2.2 1.2-15 3.6-29.7 6.3-43.9-2.7-14.2-5.1-28.9-6.3-43.9 23.1-0.6 46-1.5 68.9-2.2 1.7 15.7 3.9 30.9 6.1 46.1zm-6.3 47.7c-3.1 26.5-5.7 53.5-7.3 81.5-23.1-1.6-45.5-3.9-67.5-6.6 1.3-26.4 2.9-52.5 5.7-77.2 22.9 0.9 46.2 1.4 69.1 2.3zm-7.5 83c-1.1 19.4-2.1 38.9-2.4 59-21.9 0.3-44.9 0.3-66.1-0.6-0.1-22.2 0-44 1.2-64.9 21.9 2.6 44.3 4.9 67.3 6.5zm-2.4 60.6c-0.7 23.9-1.1 48.1-1 72.8h-0.4c-20.4-1.2-41-2.3-61-3.9-1.6-22.7-3.2-45.4-3.5-69.3 21.7 0.4 43.9 0.8 65.9 0.4zm-1 74.2c0.2 15.6 1.8 30.8 3.4 44.8 0.5 4.8 1.2 9.6 1.2 14.2-20-1.4-40.4-2.3-60.8-3.2-1.6-19.9-3.7-39.3-4.9-59.6 20.1 1.6 40.3 3 61.1 3.8zm5 60.6c1.7 11.9 3.1 24.3 5.2 35.9-2.1 11.7-3.5 24-5.2 35.9-20 1.4-40.5 2.3-61 3.2 1.4-13 2.8-25.9 4-39.1-1.2-13.2-2.6-26.1-4-39.1 20.5 0.9 41 1.8 61 3.2zm-0.4 73.5c0 4.5-0.7 9.3-1.2 14.1-1.6 14-3.2 29.2-3.4 44.8-20.8 0.9-41 2.3-61.1 3.8 1.2-20.3 3.3-39.7 4.9-59.6 20.4-0.9 40.8-1.8 60.8-3.2zm-5 60.3h0.4c-0.2 24.8 0.3 49 1 72.9-22-0.4-44.2 0-65.9 0.4 0.3-24 1.9-46.6 3.6-69.3 19.9-1.7 40.5-2.7 60.9-4zm1.4 74.5c0.3 20.1 1.3 39.6 2.4 58.9-23 1.7-45.4 4-67.3 6.6-1.2-20.9-1.3-42.7-1.2-64.9 21.2-0.9 44.2-0.9 66.1-0.6zm2.6 60.5c1.6 28 4.2 55 7.3 81.5-22.9 0.9-46.2 1.4-69.1 2.3-2.9-24.7-4.4-50.8-5.7-77.2 22-2.7 44.4-5 67.5-6.6zm7.5 83.1c1.7 15.7 3.9 30.9 6.1 46.1-2.2 15.2-4.4 30.4-6.1 46.1-22.9-0.7-45.8-1.6-68.9-2.2 1.2-15 3.6-29.7 6.3-43.9-2.7-14.2-5.1-29-6.3-44 23.1-0.5 46-1.4 68.9-2.1zm1.4 93.8c23.1 0.7 46.2 1.3 69.7 1.4-2.6 28.2-5.2 56.4-8.1 84.2-23.3-1.2-46.8-2.1-69.1-4.2 2-27.6 4.2-55.1 7.5-81.4zm71.1 1.6c4.5-0.3 9.1-0.2 13.7-0.1 4.6-0.1 9.2-0.2 13.7 0.1 2.1 28.4 5.5 56.5 7.8 84q-10.6 0.6-21.5 1-10.8-0.4-21.4-1c2.2-27.5 5.6-55.6 7.7-84zm28.8-0.2c23.6-0.1 46.7-0.7 69.7-1.4 3.3 26.3 5.5 53.8 7.6 81.4-22.3 2.1-45.8 3-69.1 4.2-3-27.8-5.6-56-8.2-84.2zm65-49.1c2.2-15.2 4.5-30.4 6.1-46.1 23 0.7 45.8 1.5 68.9 2.1-1.2 15-3.5 29.8-6.2 44 2.7 14.2 5 28.9 6.2 43.9-23.1 0.6-45.9 1.5-68.9 2.2-1.6-15.7-3.9-30.9-6.1-46.1zm70.4 0c2.6-14.1 4.8-28.7 6.4-43.8 16.4 0.5 32.4 1.4 48.6 2-0.6 13.8-1.8 27.9-2.9 41.8 1.2 13.9 2.3 28 2.9 41.7-16.2 0.7-32.2 1.6-48.6 2-1.6-15.1-3.8-29.6-6.4-43.7zm53.7 0c1.1-13.7 2.2-27.4 2.9-41.6 21.3 1 42.1 2.5 63.5 3.4q-1.1 19.5-3 38.2 1.9 18.7 3 38.1c-21.4 0.9-42.2 2.5-63.5 3.4-0.7-14.1-1.8-27.8-2.9-41.5zm64.9 0q1.9-18.7 3.1-38c21.3 1.1 42.7 2.2 64.7 2.6 1 11.4 1.4 23.4 1.7 35.4-0.3 12-0.7 24-1.7 35.4-22 0.3-43.3 1.5-64.7 2.5q-1.2-19.3-3.1-37.9zm121.3-103.9c20-1.4 39.3-3.6 58.7-5.6 0.8 23.3 1.2 47.2 2.6 69.9-21.3 1.2-42.6 2.3-64.7 2.6 1.2-22.2 2.5-44.4 3.4-66.9zm60.5-5.8c20.1-2.7 40.9-4.2 60.5-6.9 1.5-0.2 1.5-0.6 1.8 1.4 0.7 5 0.6 11.8 0.8 16.3 0.8 18.6 1.7 38.4 2.8 55.7q-31.8 1.8-63.5 3.6c-1.4-22.8-2.1-46.2-2.4-70.1zm66.1 68.1c0.7 14.2 1.8 27.9 2.9 41.6-1.1 13.7-2.2 27.4-2.9 41.5-21.4-0.9-42.1-2.5-63.5-3.4q1.1-19.5 3-38.1-1.9-18.7-3-38.2c21.4-0.9 42.1-2.4 63.5-3.4zm4.5 41.6c-1.2-13.9-2.3-28-2.9-41.8 16.2-0.6 32.1-1.5 48.5-2 1.6 15.1 3.8 29.7 6.4 43.8-2.6 14.1-4.8 28.6-6.4 43.7-16.4-0.4-32.3-1.3-48.5-2 0.6-13.7 1.7-27.8 2.9-41.7zm53.7 0c-2.7-14.2-5.1-29-6.3-44 23.1-0.6 45.9-1.4 68.9-2.1 1.7 15.7 3.9 30.9 6.1 46.1-2.2 15.2-4.4 30.4-6.1 46.1-23-0.7-45.8-1.6-68.9-2.2 1.2-15 3.6-29.7 6.3-43.9zm64 47.7c23 0.7 46.1 1.3 69.7 1.4-2.6 28.2-5.2 56.4-8.2 84.2-23.2-1.2-46.8-2.1-69.1-4.2 2.1-27.6 4.3-55.1 7.6-81.4zm71.1 1.6c4.5-0.3 9.1-0.2 13.7-0.1 4.6-0.1 9.2-0.2 13.7 0.1 2.1 28.4 5.5 56.5 7.8 84q-10.6 0.6-21.5 1-10.9-0.4-21.5-1c2.3-27.5 5.7-55.6 7.8-84zm28.8-0.2c23.6-0.1 46.7-0.7 69.7-1.4 3.3 26.3 5.5 53.8 7.5 81.4-22.3 2.1-45.8 3-69 4.2-3-27.8-5.6-56-8.2-84.2zm65-49.1c2.2-15.2 4.4-30.4 6.1-46.1 22.9 0.7 45.8 1.5 68.9 2.1-1.2 15-3.6 29.8-6.3 44 2.7 14.2 5.1 28.9 6.3 43.9-23.1 0.6-46 1.5-68.9 2.2-1.7-15.7-3.9-30.9-6.1-46.1zm6.3-47.7c3.1-26.5 5.7-53.5 7.3-81.5 23.2 1.6 45.5 3.9 67.5 6.6-1.3 26.4-2.9 52.5-5.7 77.2-22.9-0.9-46.2-1.4-69.1-2.3zm7.5-83.1c1.1-19.3 2.1-38.8 2.4-58.9 21.9-0.4 44.9-0.3 66.1 0.6 0.1 22.1 0 44-1.2 64.9-21.9-2.6-44.3-4.9-67.3-6.6zm2.4-60.5c0.7-23.9 1.1-48.1 1-72.9h0.4c20.4 1.3 41 2.3 60.9 4 1.7 22.7 3.3 45.3 3.6 69.3-21.7-0.4-43.9-0.8-65.9-0.4zm1-74.3c-0.2-15.5-1.8-30.7-3.4-44.8-0.5-4.7-1.2-9.5-1.2-14.1 20 1.4 40.4 2.2 60.8 3.2 1.6 19.8 3.7 39.3 4.9 59.5-20.1-1.5-40.3-2.9-61.1-3.8zm-5-60.5c-1.7-11.9-3.1-24.3-5.2-35.9 2.1-11.7 3.5-24 5.2-36 20-1.3 40.5-2.3 61-3.1-1.4 12.9-2.8 25.9-4 39.1 1.2 13.2 2.6 26.1 4 39.1-20.5-0.9-41-1.8-61-3.2zm0.4-73.5c0-4.5 0.7-9.3 1.2-14.1 1.6-14 3.2-29.2 3.4-44.8 20.8-0.9 41-2.3 61.1-3.8-1.2 20.3-3.3 39.7-4.9 59.6-20.4 0.9-40.8 1.8-60.8 3.1zm5-60.3h-0.4c0.2-24.7-0.3-48.9-1-72.8 22 0.4 44.2 0 65.9-0.4-0.3 23.9-1.9 46.6-3.6 69.3-19.9 1.6-40.5 2.6-60.9 3.9zm-1.4-74.4c-0.3-20.1-1.2-39.6-2.4-59 23-1.6 45.4-3.9 67.3-6.5 1.2 20.8 1.3 42.7 1.2 64.9-21.2 0.9-44.2 0.9-66.1 0.6zm-2.6-60.5c-1.6-28-4.2-55-7.3-81.5 22.9-0.9 46.2-1.4 69.1-2.4 2.9 24.8 4.4 50.9 5.7 77.3-22 2.7-44.4 5-67.5 6.6zm-7.5-83.1c-1.7-15.7-3.9-30.9-6.1-46.1 2.2-15.2 4.4-30.4 6.1-46.1 22.9 0.7 45.8 1.6 68.9 2.2-1.2 15-3.6 29.7-6.3 43.9 2.7 14.2 5.1 28.9 6.3 43.9-23.1 0.6-46 1.5-68.9 2.2zm0.2-93.8c3.1-26.4 5.7-53.5 7.3-81.4 23.1 1.5 45.5 3.9 67.5 6.5-1.3 26.4-2.9 52.5-5.8 77.3-22.8-1-46.1-1.5-69-2.4zm5.9-83.2c-22.6-1.7-45.7-2.9-68.9-4 1.7-18 3.8-35.6 5.6-53.6q32.5-0.8 65.5-1.2c0.2 0.1 0.2 0.3 0.2 0.6-0.3 19.9-1.2 39.2-2.4 58.2zm-70.5-4q-10.8-0.6-21.8-1-11 0.4-21.9 1c-1.8-18-3.9-35.6-5.6-53.6q13.8 0.2 27.5 0.5 13.6-0.3 27.4-0.5c-1.7 18-3.8 35.6-5.6 53.6zm-45.3 0c-23.2 1.1-46.3 2.3-68.9 4-1.2-19-2.1-38.3-2.4-58.2 0-0.3 0-0.5 0.2-0.6q33 0.4 65.5 1.2c1.8 18 3.9 35.6 5.6 53.6zm-62.9 87.2c-22.9 0.9-46.3 1.4-69.1 2.4-2.9-24.8-4.5-50.9-5.8-77.3 22-2.6 44.4-5 67.5-6.5 1.7 27.9 4.2 55 7.4 81.4zm-70.7 2.4c-16.3 0.6-32.7 1.2-48.6 2.2-1.5-24.4-2.8-48.9-3.6-73.9q22.9-2.8 46-5.4c0.9 3.1 0.9 6.4 1 9.6 1 22.7 2.8 45.8 5.2 67.5zm-50.2 2.2q-31.8 1.7-63.5 3.5c-1.4-22.7-2.1-46.2-2.4-70 20.1-2.8 40.9-4.2 60.5-7 1.5-0.2 1.5-0.6 1.8 1.4 0.7 5 0.6 11.8 0.8 16.3 0.8 18.6 1.7 38.4 2.8 55.8zm-131.4 6.1q-11.7 0.5-23.4-0.3-11.6 0.8-23.3 0.3c-1.5-22-2.3-44.5-3.6-66.7 8.6 0.5 17.8 0.9 26.9 1 9.2-0.1 18.4-0.5 27-1-1.3 22.2-2.2 44.7-3.6 66.7zm-48.5 72.4c-22.1 0.4-43.4 1.5-64.7 2.6q-1.2-19.4-3.1-38 1.9-18.6 3.1-38c21.3 1.1 42.6 2.2 64.7 2.6 1 11.4 1.3 23.4 1.7 35.4-0.4 12-0.7 24-1.7 35.4zm-66.1-74.9q-31.7-1.9-63.5-3.6c1-17.4 1.9-37.2 2.7-55.8 0.2-4.5 0.1-11.3 0.8-16.3 0.3-2 0.3-1.6 1.8-1.4 19.7 2.8 40.5 4.3 60.6 7-0.4 23.8-1.1 47.3-2.4 70.1zm-60-78.9c1.1-22.8 1.8-46 2.4-69.2 20.4 0.6 40.2 1.8 59.9 3.1v73.3c-20.8-2.3-41.5-4.8-62.3-7.1zm-47.6-4q23.2 2.5 46 5.4c-0.8 24.9-2.1 49.5-3.6 73.8-15.9-1-32.3-1.5-48.5-2.2 2.4-21.6 4.1-44.7 5.1-67.5 0.2-3.1 0.1-6.5 1-9.5zm-7.7 77.1c-22.9-1-46.2-1.5-69.1-2.4 3.2-26.5 5.7-53.5 7.4-81.5 23.1 1.6 45.4 3.9 67.4 6.6-1.3 26.4-2.8 52.5-5.7 77.3zm-63.1-85.6c-22.7-1.7-45.7-2.9-68.9-4 1.7-18 3.8-35.6 5.5-53.6q32.6-0.8 65.6-1.2c0.2 0.1 0.2 0.3 0.2 0.6-0.4 19.9-1.3 39.2-2.4 58.2zm-70.5-4q-10.9-0.5-21.9-1-11 0.5-21.9 1c-1.7-17.9-3.8-35.6-5.6-53.5q13.9 0.1 27.5 0.5 13.7-0.4 27.4-0.5c-1.7 17.9-3.8 35.6-5.5 53.5zm-45.4 0c-23.1 1.1-46.2 2.4-68.9 4-1.1-19-2-38.3-2.3-58.1 0-0.3-0.1-0.6 0.2-0.6q33 0.3 65.5 1.2c1.7 17.9 3.8 35.5 5.5 53.5zm-62.9 87.3c-22.9 0.9-46.2 1.4-69.1 2.3-2.9-24.7-4.4-50.9-5.7-77.2 22-2.7 44.3-5 67.4-6.6 1.7 28 4.2 55 7.4 81.5zm-70.5 4c1.6 15.1 3.8 29.6 6.4 43.7-2.6 14.1-4.8 28.6-6.4 43.7-16.4-0.4-32.3-1.3-48.6-2 0.7-13.7 1.8-27.8 2.9-41.7-1.1-13.9-2.2-28-2.9-41.8 16.3-0.6 32.2-1.5 48.6-1.9zm-0.2 89c-2.4 21.7-4.2 44.8-5.2 67.5-0.1 3.2-0.1 6.5-0.9 9.6q-23.2-2.6-46-5.4c0.8-25 2.1-49.5 3.5-73.8 16 1 32.3 1.5 48.6 2.2zm-5.8 78.6c-0.9 21.1-1.6 43.4-1 65.3-16.1-0.3-31.8-1-47.8-1.4 0.5-23.3 1.5-46.2 2.2-69.3 15.6 1.9 30.9 3.8 46.6 5.4zm-1 66.9c0.4 23.9 2 46.5 3.6 69.1-18.3-1.1-35.9-2.9-53.7-4.5 1-21.8 1.6-43.9 2.2-66.1 15.7 0.8 31.9 1.1 48 1.6zm3.7 70.7c1.3 20.2 3.4 39.7 5 59.7h-0.4c-20.3-1.1-41-1.8-61.7-2.6 1.2-20.4 2.4-40.9 3.2-61.7 17.9 1.6 35.6 3.4 54 4.6zm-57.2 58.8c21 0.6 41.5 1.7 62.3 2.4 1.4 13 2.9 26 4.1 39.3-1.2 13.2-2.7 26.2-4.1 39.3-20.8 0.7-41.3 1.8-62.3 2.4-0.6-13.7-1.6-27.7-1.8-41.7 0.3-14.1 1.2-28 1.8-41.7zm0 85c20.7-0.8 41.4-1.5 61.7-2.6h0.4c-1.6 19.9-3.6 39.5-4.9 59.7-18.4 1.2-36 3-54 4.6-0.8-20.8-1.9-41.3-3.2-61.7zm57 58.7c-1.6 22.6-3.2 45.3-3.6 69.1-16.1 0.5-32.3 0.8-48 1.6-0.6-22.2-1.2-44.4-2.2-66.1 17.8-1.6 35.5-3.4 53.8-4.6zm-3.6 70.7c-0.6 21.9 0.1 44.2 1 65.3-15.7 1.6-31.1 3.6-46.6 5.4-0.7-23.1-1.7-45.9-2.2-69.3 16-0.4 31.7-1.1 47.8-1.4zm0.6 66.9c0.9 3 0.8 6.4 1 9.6 1 22.7 2.8 45.8 5.2 67.5-16.3 0.6-32.7 1.1-48.6 2.1-1.5-24.3-2.8-48.8-3.6-73.8q22.9-2.8 46-5.4zm6.4 78.6c1.6 15.2 3.7 29.7 6.4 43.8-2.7 14.1-4.8 28.6-6.4 43.7-16.4-0.4-32.4-1.3-48.6-2 0.6-13.7 1.7-27.8 2.9-41.7-1.2-13.9-2.3-28-2.9-41.8 16.2-0.6 32.2-1.5 48.6-2zm1.4 89.1c22.8 1 46.2 1.4 69.1 2.4-3.2 26.4-5.7 53.5-7.4 81.4-23.1-1.6-45.5-3.9-67.5-6.5 1.3-26.4 2.9-52.5 5.8-77.3zm63.1 85.6c22.6 1.7 45.7 2.9 68.9 4-1.7 18-3.8 35.6-5.6 53.6q-32.5 0.8-65.5 1.2c-0.2-0.1-0.2-0.3-0.2-0.6 0.3-19.9 1.2-39.2 2.4-58.2zm70.5 4q10.8 0.6 21.9 1 11-0.4 21.8-1c1.8 18 3.9 35.6 5.6 53.6q-13.8-0.2-27.4-0.5-13.7 0.3-27.5 0.5c1.8-18 3.8-35.6 5.6-53.6zm45.3 0c23.2-1.1 46.3-2.3 68.9-4 1.2 19 2.1 38.3 2.4 58.2 0 0.3 0 0.5-0.2 0.6q-33-0.4-65.5-1.2c-1.7-18-3.8-35.6-5.6-53.6zm63-87.2c22.9-0.9 46.2-1.4 69-2.4 2.9 24.8 4.5 50.9 5.8 77.3-22 2.6-44.4 5-67.5 6.6-1.6-28-4.2-55-7.3-81.5zm70.6-2.3c16.3-0.7 32.7-1.2 48.6-2.2 1.5 24.4 2.8 48.9 3.6 73.8q-22.9 2.8-46 5.4c-0.9-3-0.8-6.4-1-9.5-1-22.8-2.8-45.9-5.2-67.5zm50.2-2.2q31.8-1.7 63.5-3.6c1.4 22.8 2.1 46.2 2.4 70.1-20.1 2.7-40.9 4.2-60.5 7-1.5 0.2-1.5 0.6-1.8-1.4-0.7-5.1-0.6-11.8-0.8-16.4-0.8-18.5-1.7-38.3-2.8-55.7zm131.4-6.2q11.7-0.4 23.4 0.3 11.7-0.7 23.3-0.3c1.5 22 2.3 44.6 3.6 66.7-8.6-0.4-17.8-0.9-26.9-1-9.1 0.1-18.4 0.6-27 1 1.4-22.1 2.2-44.7 3.6-66.7zm48.5-72.3c22.1-0.4 43.4-1.6 64.8-2.6q1.1 19.3 3 38-1.9 18.6-3 37.9c-21.4-1-42.7-2.2-64.8-2.6-1-11.3-1.3-23.3-1.7-35.3 0.4-12.1 0.8-24.1 1.8-35.4zm66.1 74.9q31.6 1.9 63.5 3.6c-1.1 17.4-2 37.1-2.8 55.7-0.2 4.6-0.1 11.3-0.8 16.4-0.3 2-0.3 1.6-1.8 1.4-19.7-2.8-40.4-4.3-60.5-7 0.3-23.9 1-47.3 2.4-70.1zm59.9 78.8c-1.1 22.8-1.7 46.1-2.4 69.3-20.4-0.7-40.2-1.9-59.9-3.2v-73.2c20.8 2.3 41.5 4.8 62.3 7.1zm47.6 4q-23.2-2.5-46-5.4c0.8-24.9 2.1-49.5 3.6-73.8 15.9 1 32.3 1.5 48.5 2.2-2.4 21.6-4.1 44.7-5.1 67.5-0.2 3.1-0.1 6.5-1 9.5zm7.7-77c22.9 0.9 46.2 1.4 69.1 2.3-3.1 26.5-5.7 53.5-7.3 81.5-23.2-1.6-45.5-3.9-67.5-6.6 1.3-26.4 2.9-52.5 5.7-77.3zm63.2 85.7c22.6 1.6 45.7 2.8 68.8 3.9-1.7 18-3.8 35.7-5.5 53.6q-32.5 0.8-65.5 1.2c-0.3 0-0.2-0.3-0.2-0.6 0.3-19.9 1.2-39.1 2.4-58.1zm70.4 3.9q10.9 0.6 21.9 1 11-0.4 21.9-1c1.7 18 3.8 35.6 5.6 53.6q-13.8-0.2-27.5-0.5-13.6 0.3-27.4 0.5c1.7-18 3.8-35.6 5.5-53.6zm45.4 0c23.2-1.1 46.2-2.3 68.9-4 1.1 19 2 38.3 2.4 58.2 0 0.3 0 0.5-0.2 0.6q-33-0.4-65.5-1.2c-1.8-18-3.9-35.6-5.6-53.6zm62.9-87.2c22.9-0.9 46.2-1.4 69.1-2.4 2.9 24.8 4.5 50.9 5.8 77.3-22.1 2.6-44.4 5-67.5 6.5-1.7-27.9-4.2-55-7.4-81.4zm70.5-4c-1.6-15.1-3.8-29.6-6.4-43.7 2.6-14.1 4.8-28.6 6.4-43.8 16.4 0.5 32.4 1.4 48.6 2-0.6 13.8-1.8 27.9-2.9 41.8 1.1 13.9 2.3 28 2.9 41.7-16.2 0.7-32.2 1.6-48.6 2zm0.2-89c2.4-21.7 4.2-44.8 5.2-67.5 0.1-3.2 0.1-6.6 1-9.6q23.1 2.5 46 5.4c-0.9 25-2.2 49.5-3.6 73.8-15.9-1-32.3-1.5-48.6-2.2zm5.8-78.6c0.9-21.1 1.6-43.4 1-65.3 16.1 0.3 31.8 1 47.7 1.4-0.4 23.4-1.4 46.2-2.1 69.3-15.6-1.8-30.9-3.8-46.6-5.4zm1-66.9c-0.4-23.8-2-46.5-3.6-69.1 18.3 1.2 35.9 2.9 53.7 4.6-1 21.7-1.6 43.9-2.1 66.1-15.8-0.8-32-1.2-48-1.6zm-3.8-70.7c-1.3-20.3-3.4-39.8-5-59.8h0.4c20.3 1.2 41.1 1.9 61.7 2.6-1.2 20.4-2.3 40.9-3.2 61.8-17.9-1.6-35.6-3.5-53.9-4.6zm57.1-58.8c-21-0.6-41.4-1.7-62.3-2.4-1.3-13.1-2.8-26.1-4-39.3 1.2-13.3 2.7-26.3 4-39.3 20.9-0.7 41.4-1.9 62.3-2.4 0.6 13.7 1.6 27.6 1.9 41.7-0.3 14-1.3 28-1.9 41.7zm0-85c-20.6 0.8-41.4 1.5-61.7 2.6h-0.4c1.6-20 3.7-39.5 5-59.8 18.3-1.1 36-3 53.9-4.5 0.9 20.8 2 41.3 3.2 61.7zm-56.9-58.8c1.6-22.6 3.2-45.2 3.6-69 16-0.5 32.2-0.9 48-1.6 0.5 22.2 1.1 44.3 2.1 66.1-17.8 1.6-35.4 3.4-53.7 4.5zm3.6-70.6c0.6-22-0.1-44.3-1-65.3 15.7-1.7 31-3.6 46.6-5.4 0.7 23.1 1.7 45.9 2.1 69.3-15.9 0.4-31.6 1.1-47.7 1.4zm-0.6-66.9c-0.9-3.1-0.9-6.4-1-9.6-1-22.7-2.8-45.8-5.2-67.5 16.3-0.6 32.7-1.2 48.6-2.2 1.4 24.4 2.7 48.9 3.6 73.9q-22.9 2.8-46 5.4zm-6.4-78.7c-1.6-15.1-3.8-29.6-6.4-43.7 2.6-14.1 4.8-28.6 6.4-43.8 16.4 0.5 32.3 1.4 48.6 2-0.6 13.8-1.8 27.9-2.9 41.8 1.1 13.9 2.3 28 2.9 41.7-16.3 0.7-32.2 1.6-48.6 2zm0.2-89c2.4-21.7 4.1-44.8 5.1-67.5 0.2-3.2 0.1-6.5 1-9.6q23.2 2.5 46 5.4c-0.8 25-2.1 49.5-3.5 73.9-16-1.1-32.4-1.6-48.6-2.2zm5.7-78.7c0.9-21.1 1.6-43.4 1-65.3 16.1 0.3 31.8 1 47.8 1.4-0.4 23.4-1.5 46.2-2.2 69.3-15.5-1.8-30.9-3.8-46.6-5.4zm1-66.9c-0.4-23.8-2-46.5-3.6-69.1 18.3 1.2 36 3 53.8 4.6-1 21.7-1.6 43.9-2.2 66.1-15.7-0.8-31.9-1.1-48-1.6zm-1.4 1.8c0.1 22.1 0 44-1.2 64.9-22-2.7-44.3-4.9-67.3-6.6 1.1-19.3 2.1-38.8 2.4-58.9 21.9-0.4 44.9-0.4 66.1 0.6zm-67.5-2.2q-33 0.4-65.7 1.2c2.7-25.4 5.5-50.7 7.6-76.7 19.9 0.6 39.4 1.6 58.9 2.6 0.2 24.8-0.4 48.7-0.8 72.9zm-67.3 1.1q-13.8 0.3-27.6 0.6-13.8-0.3-27.7-0.6c-2.7-25.4-5.6-50.6-7.5-76.8 11.8-0.4 23.4-0.9 35.2-1.3 11.8 0.4 23.4 0.9 35.2 1.3-2 26.2-4.8 51.4-7.6 76.8zm-56.9 0q-32.7-0.7-65.7-1.2c-0.3-24.1-1-48-0.8-72.8 19.6-1 39-2 59-2.6 2 26 4.8 51.3 7.5 76.6zm-64.7 59.4c-22.9 1.6-45.3 3.9-67.3 6.5-1.1-20.9-1.3-42.7-1.2-64.9 21.2-0.9 44.3-0.9 66.1-0.6 0.4 20.1 1.3 39.6 2.4 58.9zm-69.9-60.1c-16 0.5-32.2 0.8-47.9 1.6-0.6-22.2-1.2-44.4-2.2-66.1 17.8-1.6 35.5-3.4 53.7-4.6-1.6 22.6-3.2 45.3-3.6 69.1zm-47 72.5c-20.8 2.3-41.5 4.8-62.3 7.1v-73.2c19.7-1.4 39.6-2.6 59.9-3.2 0.7 23.2 1.3 46.5 2.4 69.3zm-63.9-67.6c-18.8 1.4-37 3.4-55.6 5 1-21.2 1.6-42.9 2-64.7q27.7-2.2 55.4-4.4c-1 21.1-1.7 42.3-1.8 64.1zm-57.2 5.2c-10 1-20 2-30.1 3-10.1-1-20.1-2-30.1-3-1.1-21.2-1.6-42.8-2-64.7 10.4 0.5 21.2 1.2 32.1 1.7 11-0.5 21.8-1.2 32.1-1.7-0.4 21.9-0.9 43.5-2 64.7zm-30.1 4.5c10.2-1 20.3-2 30.1-2.7-0.9 24.7-2 49.2-3.2 73.7-8.5 0.4-17.7 0.9-26.9 1-9.2-0.1-18.4-0.6-26.9-1-1.1-24.5-2.3-49-3.2-73.7 9.8 0.7 19.9 1.7 30.1 2.7zm-28.5 70.8c-20.1-1.4-39.3-3.6-58.8-5.6v-69.1c0-1.4-0.4-3.6 0.6-4.2 18.6 1.5 36.7 3.4 55 5 0.9 24.8 2.1 49.3 3.2 73.9zm-58.6-4c19.5 2 38.8 4.2 58.8 5.6 0.9 22.5 2.1 44.7 3.4 66.9-22.2-0.3-43.4-1.5-64.7-2.6 1.4-22.8 1.7-46.6 2.5-69.9zm-61.7-79.8c0.9-21.9 1.4-44 2.2-65.9 18.8 1.5 37.2 3.4 55.9 5 1 21 1.8 42.1 1.9 64.1-19.8-1.3-39.7-2.5-60-3.2zm-1.4 0c-15.7-0.8-31.9-1.2-47.9-1.6-0.4-23.9-2-46.5-3.6-69.1 18.2 1.1 35.9 2.9 53.7 4.6-1 21.7-1.6 43.9-2.2 66.1zm-49.3 0.2c0.1 22.1-0.1 44-1.2 64.9-22-2.7-44.4-4.9-67.3-6.6 1-19.3 2-38.8 2.4-58.9 21.8-0.4 44.8-0.4 66 0.6zm-67.4-2.2q-33.1 0.4-65.8 1.2c2.8-25.4 5.6-50.7 7.6-76.7 19.9 0.6 39.4 1.6 58.9 2.6 0.3 24.8-0.4 48.7-0.8 72.9zm-67.3 1.2q-13.8 0.2-27.6 0.5-13.8-0.3-27.6-0.5c-2.8-25.4-5.6-50.7-7.6-76.9 11.8-0.4 23.4-0.9 35.2-1.3 11.8 0.4 23.4 1 35.2 1.3-2 26.2-4.8 51.5-7.6 76.9zm-56.9 0q-32.6-0.8-65.7-1.2c-0.3-24.2-1-48.1-0.7-72.9 19.5-1 39-2 58.9-2.6 2 26 4.8 51.3 7.5 76.7zm-64.7 59.3c-22.9 1.7-45.3 3.9-67.3 6.6-1.1-20.9-1.3-42.8-1.2-64.9 21.3-1 44.3-1 66.1-0.6 0.4 20.1 1.3 39.6 2.4 58.9zm-69.9-60.1c-16 0.4-32.2 0.8-47.9 1.6-0.6-22.2-1.2-44.4-2.2-66.1 17.8-1.7 35.4-3.5 53.7-4.6-1.6 22.6-3.2 45.2-3.6 69.1zm-46.9 72.4c-20.8 2.4-41.6 4.8-62.4 7.2v-73.3c19.8-1.3 39.6-2.5 60-3.1 0.6 23.2 1.3 46.5 2.4 69.2zm-1.8 1.8c1.5-0.2 1.5-0.6 1.8 1.4 0.7 5.1 0.6 11.8 0.8 16.4 0.8 18.6 1.6 38.3 2.7 55.7q-31.8 1.8-63.5 3.6c-1.3-22.8-2.1-46.2-2.4-70.1 20.1-2.7 40.9-4.2 60.6-7zm5.5 75.1c0.7 14.1 1.9 27.8 3 41.5-1.2 13.7-2.3 27.5-3 41.6-21.3-1-42.1-2.5-63.5-3.4q1.1-19.5 3.1-38.2-1.9-18.7-3.1-38.1c21.4-0.9 42.2-2.5 63.5-3.4zm-0.2 84.7c-1 17.3-1.9 37.1-2.7 55.7-0.2 4.5-0.1 11.3-0.8 16.3-0.3 2-0.3 1.6-1.8 1.4-19.7-2.7-40.5-4.2-60.6-6.9 0.3-23.9 1.1-47.3 2.4-70.1q31.7 1.8 63.5 3.5zm-3.5 75.3c-1.1 22.8-1.8 46.1-2.4 69.3-20.4-0.7-40.2-1.9-60-3.2v-73.3c20.8 2.4 41.6 4.8 62.4 7.2zm-2.4 70.9c-0.9 21.8-1.4 44-2.2 65.9-18.8-1.6-37.2-3.4-55.9-5-1-21-1.8-42.2-1.8-64.1 19.7 1.2 39.6 2.4 59.9 3.1zm-57.6 128.7c17.3 0.8 34.5 1.6 52 2.1-0.6 13.8-1.5 27.7-1.8 41.9 0.3 14.2 1.2 28.2 1.8 42-17.5 0.5-34.7 1.4-52 2.1-0.4-15.5-2.2-29.7-3.8-44.1 1.6-14.3 3.4-28.5 3.8-44.1zm-0.6 155.9c18.8-1.5 37.2-3.4 56-4.9 0.8 21.9 1.3 44 2.1 65.9-20.3 0.7-40.1 1.9-59.9 3.2 0.1-22 0.9-43.2 1.8-64.2zm58.2 62.5c0.6 23.3 1.2 46.5 2.3 69.3-20.8 2.4-41.5 4.8-62.3 7.2v-73.3c19.8-1.3 39.6-2.5 60-3.2zm0.6 71.1c1.4-0.2 1.5-0.6 1.7 1.4 0.8 5 0.6 11.8 0.8 16.3 0.9 18.6 1.7 38.4 2.8 55.8q-31.8 1.7-63.5 3.6c-1.4-22.8-2.1-46.3-2.4-70.1 20.1-2.8 40.9-4.2 60.6-7zm5.5 75.1c0.7 14.1 1.8 27.8 3 41.5-1.2 13.7-2.3 27.4-3 41.6-21.3-1-42.1-2.5-63.5-3.4q1.1-19.5 3.1-38.2-1.9-18.7-3.1-38.2c21.4-0.8 42.2-2.4 63.5-3.3zm-0.2 84.6c-1 17.4-1.9 37.2-2.7 55.8-0.2 4.5-0.1 11.3-0.8 16.3-0.3 2-0.3 1.6-1.8 1.4-19.7-2.8-40.5-4.2-60.6-7 0.3-23.8 1.1-47.3 2.4-70q31.7 1.8 63.6 3.5zm-3.6 75.3c-1.1 22.8-1.8 46.1-2.4 69.3-20.4-0.7-40.2-1.9-59.9-3.2v-73.3c20.8 2.4 41.5 4.8 62.3 7.2zm-2.4 70.9c-0.8 21.9-1.4 44-2.2 65.9-18.7-1.6-37.2-3.4-55.9-5-1-21-1.8-42.2-1.8-64.1 19.8 1.2 39.6 2.4 59.9 3.2zm1.4 0c15.7 0.8 31.9 1.1 48 1.6 0.4 23.8 1.9 46.5 3.5 69.1-18.2-1.2-35.9-3-53.7-4.6 1-21.7 1.6-43.9 2.2-66.1zm49.4-0.2c-0.1-22.2 0-44 1.2-64.9 21.9 2.6 44.3 4.9 67.3 6.5-1.2 19.4-2.1 38.9-2.4 59-21.9 0.3-44.9 0.3-66.1-0.6zm67.5 2.2q33-0.5 65.7-1.2c-2.8 25.3-5.6 50.6-7.6 76.6-19.9-0.6-39.4-1.6-58.9-2.6-0.3-24.7 0.4-48.6 0.8-72.8zm67.3-1.2q13.8-0.2 27.6-0.5 13.8 0.2 27.7 0.5c2.7 25.4 5.6 50.7 7.5 76.8-11.8 0.4-23.4 0.9-35.2 1.3-11.8-0.4-23.4-0.9-35.2-1.3 2-26.1 4.8-51.4 7.6-76.8zm56.9 0q32.7 0.8 65.7 1.2c0.3 24.2 1 48.1 0.8 72.9-19.6 0.9-39.1 2-59 2.6-2-26.1-4.8-51.3-7.5-76.7zm64.7-59.3c22.9-1.7 45.3-3.9 67.3-6.6 1.1 20.9 1.3 42.8 1.2 64.9-21.3 1-44.3 1-66.1 0.6-0.4-20.1-1.3-39.6-2.4-58.9zm69.8 60.1c16.1-0.5 32.3-0.8 48-1.6 0.6 22.2 1.2 44.4 2.2 66.1-17.8 1.7-35.5 3.4-53.8 4.6 1.7-22.6 3.3-45.2 3.7-69.1zm47-72.4c20.8-2.4 41.5-4.8 62.3-7.2v73.3c-19.8 1.3-39.6 2.5-59.9 3.2-0.7-23.2-1.3-46.5-2.4-69.3zm63.9 67.5c18.8-1.4 37-3.4 55.5-5-0.9 21.3-1.5 42.9-1.9 64.7q-27.7 2.2-55.4 4.4c1-21 1.7-42.3 1.8-64.1zm57.2-5.2c10-1 20-2 30.1-2.9 10.1 0.9 20.1 1.9 30.1 2.9 1.1 21.2 1.6 42.9 2 64.7-10.4-0.5-21.2-1.2-32.1-1.7-11 0.5-21.8 1.2-32.1 1.7 0.4-21.8 0.9-43.5 2-64.7zm30.1-4.5c-10.1 1-20.3 2.1-30.1 2.8 0.9-24.8 2.1-49.2 3.2-73.7 8.5-0.5 17.8-1 26.9-1 9.2 0 18.4 0.5 27 1 1.1 24.5 2.2 48.9 3.1 73.7-9.8-0.7-19.9-1.7-30.1-2.7zm28.6-70.8c20 1.4 39.3 3.6 58.7 5.6v69.1c0 1.4 0.5 3.6-0.6 4.1-18.5-1.4-36.6-3.3-54.9-4.9-0.9-24.8-2.1-49.3-3.2-73.9zm58.5 4c-19.4-2-38.7-4.2-58.7-5.6-0.9-22.5-2.1-44.7-3.4-66.9 22.1 0.3 43.4 1.5 64.7 2.6-1.4 22.8-1.7 46.6-2.5 69.9zm61.7 79.9c-0.8 21.9-1.4 44-2.2 65.9-18.7-1.6-37.2-3.4-55.9-5-1-21-1.8-42.2-1.8-64.1 19.8 1.2 39.6 2.4 59.9 3.2zm1.4 0c15.7 0.8 31.9 1.1 48 1.6 0.4 23.8 1.9 46.5 3.6 69.1-18.3-1.2-36-3-53.8-4.6 1-21.7 1.6-43.9 2.2-66.1zm49.4-0.2c-0.1-22.2 0-44 1.2-64.9 21.9 2.6 44.3 4.9 67.3 6.5-1.1 19.4-2.1 38.9-2.4 59-21.9 0.3-44.9 0.3-66.1-0.6zm67.5 2.2q33-0.5 65.7-1.2c-2.7 25.3-5.6 50.6-7.6 76.6-19.9-0.6-39.4-1.6-58.9-2.6-0.2-24.7 0.4-48.6 0.8-72.8zm67.3-1.2q13.8-0.2 27.6-0.5 13.8 0.2 27.7 0.5c2.7 25.4 5.6 50.7 7.5 76.8-11.8 0.4-23.4 0.9-35.2 1.3-11.8-0.4-23.4-0.9-35.2-1.3 2-26.1 4.8-51.4 7.6-76.8zm56.9 0q32.7 0.8 65.7 1.2c0.3 24.2 1 48.1 0.8 72.9-19.6 0.9-39 2-59 2.6-2-26.1-4.8-51.3-7.5-76.7zm64.7-59.3c23-1.7 45.3-3.9 67.3-6.6 1.1 20.9 1.3 42.8 1.2 64.9-21.2 1-44.2 1-66.1 0.6-0.4-20.1-1.3-39.6-2.4-58.9zm69.9 60.1c16-0.5 32.2-0.8 48-1.6 0.5 22.2 1.1 44.4 2.1 66.1-17.8 1.7-35.5 3.4-53.7 4.6 1.6-22.6 3.2-45.2 3.6-69.1zm47-72.4c20.8-2.4 41.5-4.8 62.3-7.2v73.3c-19.7 1.3-39.6 2.5-59.9 3.2-0.7-23.2-1.3-46.5-2.4-69.3zm1.8-1.8c-1.5 0.2-1.5 0.6-1.8-1.4-0.7-5-0.6-11.8-0.8-16.3-0.8-18.6-1.7-38.4-2.8-55.8q31.8-1.7 63.5-3.6c1.4 22.8 2.1 46.3 2.4 70.1-20 2.8-40.8 4.3-60.5 7zm-5.5-75c-0.7-14.1-1.8-27.9-3-41.6 1.2-13.7 2.3-27.4 3-41.5 21.3 0.9 42.1 2.5 63.5 3.4q-1.1 19.5-3.1 38.1 1.9 18.7 3.1 38.2c-21.4 0.9-42.2 2.4-63.5 3.4zm0.2-84.7c1.1-17.4 2-37.1 2.8-55.7 0.2-4.5 0-11.3 0.8-16.4 0.3-1.9 0.3-1.6 1.8-1.3 19.6 2.7 40.4 4.2 60.5 6.9-0.3 23.9-1 47.3-2.4 70.1q-31.7-1.8-63.5-3.5zm3.6-75.3c1.1-22.8 1.7-46.1 2.4-69.3 20.3 0.7 40.2 1.9 59.9 3.2v73.3c-20.8-2.4-41.5-4.8-62.3-7.2zm2.4-70.8c0.8-21.9 1.4-44 2.2-65.9 18.7 1.5 37.2 3.4 55.9 4.9 1 21 1.8 42.2 1.9 64.1-19.8-1.2-39.7-2.4-60-3.1zm57.6-128.6c-17.3-0.8-34.5-1.7-52-2.2 0.6-13.8 1.5-27.7 1.8-41.9-0.3-14.2-1.2-28.1-1.8-41.9 17.5-0.6 34.7-1.4 52-2.2 0.4 15.6 2.2 29.7 3.8 44.1-1.6 14.4-3.4 28.5-3.8 44.1zm0.6-155.9c-18.7 1.6-37.2 3.4-56 5-0.7-21.9-1.3-44-2.1-65.9 20.3-0.8 40.1-2 59.9-3.2 0 22-0.8 43.1-1.8 64.1zm-58.1-62.4c-0.7-23.3-1.3-46.5-2.4-69.3 20.8-2.4 41.5-4.8 62.3-7.2v73.3c-19.7 1.3-39.5 2.5-59.9 3.2zm-0.6-71.1c-1.5 0.2-1.5 0.6-1.8-1.4-0.7-5-0.6-11.8-0.8-16.3-0.8-18.6-1.7-38.4-2.8-55.8q31.8-1.7 63.5-3.6c1.4 22.8 2.1 46.3 2.4 70.1-20.1 2.7-40.8 4.2-60.5 7zm-5.6-75.1c-0.7-14.1-1.8-27.8-2.9-41.5 1.1-13.7 2.2-27.4 2.9-41.6 21.4 1 42.1 2.5 63.5 3.4q-1 19.5-3 38.2 1.9 18.7 3 38.1c-21.4 0.9-42.1 2.5-63.5 3.4zm0.2-84.7c1.1-17.3 2-37.1 2.8-55.7 0.2-4.5 0.1-11.3 0.8-16.3 0.3-2 0.3-1.6 1.8-1.4 19.6 2.7 40.4 4.2 60.5 6.9-0.3 23.9-1 47.3-2.4 70.1q-31.6-1.8-63.5-3.6zm3.6-75.2c1.1-22.8 1.7-46.1 2.4-69.3 20.3 0.7 40.2 1.9 59.9 3.2v73.2c-20.8-2.3-41.5-4.8-62.3-7.1zm2.4-70.9c0.8-21.9 1.4-44 2.2-65.9 18.7 1.6 37.2 3.4 55.9 5 1 21 1.8 42.2 1.8 64.1-19.8-1.3-39.6-2.5-59.9-3.2zm5.4-129.2c17.6 0.4 34.7 1.3 51.9 2.2-0.4 21.5-0.2 43.8 0.8 64.5-18.7-1.6-37.1-3.4-55.7-5 0.6-20.9 2.1-41 3-61.7zm-63.2-2.8c20.4 1.1 41.1 1.8 61.8 2.6-1.3 20.4-2.4 40.9-3.2 61.7-18-1.6-35.6-3.4-54-4.6-1.3-20.2-3.3-39.8-4.9-59.7zm-2 0c1.6 19.8 3.7 39.3 4.9 59.5-20.1-1.5-40.3-2.9-61.1-3.8-0.2-15.5-1.8-30.7-3.4-44.8-0.5-4.7-1.2-9.5-1.2-14.1 20 1.4 40.4 2.2 60.8 3.2zm-112.5-6.4c16.7 1 33.1 2.2 49.8 3.2 2.3 18.9 4.5 38 4.9 58.7-19.5-0.9-38.9-1.9-58.7-2.5q2.3-29.4 4-59.4zm-41-3.1c13.2 1 26.2 2 39.4 2.9-1.1 20-2.4 39.8-4 59.2-11.7 0-23.5-0.6-35.4-1.1-11.9 0.5-23.8 1.1-35.4 1.1-1.7-19.4-2.9-39.2-4-59.2 13.1-0.9 26.2-1.9 39.4-2.9zm-90.8 6.3c16.7-1 33.1-2.2 49.8-3.2q1.7 30 4 59.4c-19.8 0.6-39.2 1.6-58.8 2.5 0.5-20.7 2.6-39.8 5-58.7zm-62.7 3.2c20.3-1 40.8-1.8 60.7-3.2 0.1 4.6-0.6 9.4-1.2 14.1-1.6 14.1-3.1 29.3-3.4 44.8-20.7 0.9-41 2.3-61.1 3.8 1.3-20.2 3.3-39.7 5-59.5zm-2 0h0.4c-1.6 19.9-3.7 39.5-5 59.7-18.3 1.2-36 3-53.9 4.6-0.8-20.8-2-41.3-3.2-61.7 20.6-0.8 41.4-1.5 61.7-2.6zm-115.1 5c17.2-0.9 34.4-1.8 52-2.2 0.9 20.7 2.4 40.8 3 61.7-18.6 1.6-37 3.5-55.8 5 1.1-20.7 1.3-43 0.8-64.5zm55.2 61.1c0.8 21.9 1.4 44 2.2 65.9-20.3 0.7-40.1 1.9-59.9 3.2 0-21.9 0.8-43.1 1.8-64.1 18.7-1.6 37.1-3.4 55.9-5zm-85.8-59.9c9.4-0.5 18.5-0.2 27.5-1 0.3-0.1 0.5-0.3 0.8-0.2 1.2 0.3 0.7 1.6 0.8 3.6 0.9 19.4 0 42.3-0.8 61.1-18.4 1.5-36.8 3-55.4 4.4 0.4-22.6 0-45.3-0.8-67.3 9.4 0 18.7-0.2 27.9-0.6zm-92.1 0.6q15.3 0.1 31.3 0.2 16-0.1 31.3-0.2c0.7 21.7 1.6 45.2 0.6 67.3q-15.7 1.2-31.9 2-16.2-0.8-31.9-2c-1-22.1-0.1-45.6 0.6-67.3zm-0.4 133.6c-18.6-1.6-36.8-3.6-55.6-5-0.1-21.9-0.9-43.1-1.8-64.1q27.7 2.1 55.3 4.4c0.5 21.7 1 43.4 2 64.7zm-57.3-135.4c0.3-0.1 0.5 0.1 0.8 0.2 9 0.8 18.1 0.5 27.5 1q13.7 0.6 27.8 0.6c-0.7 22-1.2 44.7-0.8 67.3-18.5-1.4-36.9-2.9-55.3-4.4-0.8-18.8-1.7-41.7-0.8-61.1 0-2-0.5-3.3 0.8-3.6zm-54.4-2.2c17.6 0.5 34.8 1.3 52 2.2-0.5 21.5-0.3 43.8 0.8 64.5-18.7-1.5-37.2-3.4-55.8-5 0.6-20.9 2.1-41 3-61.7zm-63.1-2.8c20.3 1.1 41 1.8 61.7 2.6-1.2 20.4-2.4 40.9-3.2 61.7-17.9-1.6-35.6-3.4-53.9-4.6-1.3-20.2-3.4-39.8-5-59.7zm-2 0c1.7 19.8 3.7 39.3 5 59.5-20.1-1.5-40.4-2.9-61.1-3.8-0.3-15.5-1.8-30.7-3.4-44.8-0.6-4.7-1.3-9.5-1.2-14.1 19.9 1.4 40.3 2.2 60.7 3.2zm-112.5-6.4c16.7 1 33.1 2.2 49.8 3.2 2.3 18.8 4.5 37.9 4.9 58.7-19.5-0.9-38.9-1.9-58.7-2.6q2.3-29.3 4-59.3zm-41.1-3.1c13.2 0.9 26.3 1.9 39.4 2.9-1.1 20-2.3 39.7-3.9 59.1-11.7 0.1-23.5-0.6-35.5-1-11.9 0.4-23.7 1.1-35.4 1-1.6-19.4-2.9-39.1-4-59.1 13.2-1 26.3-2 39.4-2.9zm-90.7 6.3c16.6-1 33-2.3 49.8-3.2q1.6 29.9 3.9 59.3c-19.7 0.7-39.2 1.7-58.7 2.6 0.5-20.8 2.6-39.9 5-58.7zm-62.7 3.1c20.3-0.9 40.7-1.8 60.7-3.1 0 4.5-0.7 9.3-1.2 14.1-1.6 14-3.1 29.2-3.4 44.8-20.8 0.8-41 2.2-61.1 3.8 1.3-20.3 3.3-39.7 5-59.6zm-2 0h0.4c-1.7 20-3.7 39.5-5 59.8-18.4 1.1-36 3-54 4.6-0.8-20.9-1.9-41.4-3.1-61.8 20.6-0.8 41.3-1.4 61.7-2.6zm-115.1 5c17.2-0.8 34.4-1.7 52-2.2 0.8 20.8 2.3 40.8 2.9 61.8-18.6 1.6-37 3.4-55.7 4.9 1.1-20.6 1.2-43 0.8-64.5zm55.2 61.1c0.8 22 1.3 44.1 2.1 65.9-20.3 0.8-40.1 2-59.9 3.2 0.1-21.9 0.9-43 1.8-64.1 18.7-1.6 37.2-3.4 56-5zm-85.9-59.9c9.4-0.4 18.6-0.2 27.5-1 0.3 0 0.5-0.3 0.8-0.2 1.3 0.4 0.7 1.7 0.8 3.6 0.9 19.4 0 42.4-0.8 61.1-18.4 1.5-36.8 3-55.3 4.4 0.4-22.5-0.1-45.3-0.8-67.3q14.1 0 27.8-0.6zm-27 69.5q27.7-2.2 55.3-4.4c-0.9 21.1-1.6 42.3-1.8 64.1-18.8 1.4-37 3.4-55.5 5 1-21.2 1.5-42.9 2-64.7zm-2 66.3c18.3-1.7 36.4-3.5 54.9-5 1.1 0.5 0.6 2.8 0.6 4.2v69.1c-19.4 2-38.7 4.2-58.7 5.5 1.1-24.6 2.3-49.1 3.2-73.8zm-3.4 75.4c20-1.4 39.3-3.5 58.7-5.6 0.8 23.3 1.2 47.2 2.6 69.9-21.3 1.2-42.6 2.3-64.7 2.6 1.2-22.2 2.5-44.3 3.4-66.9zm-3.2 68.5c22.1-0.4 43.3-1.5 64.7-2.6q1.2 19.4 3.1 38-1.9 18.6-3.1 38c-21.4-1.1-42.6-2.3-64.7-2.6-1-11.4-1.4-23.4-1.7-35.4 0.3-12 0.7-24 1.7-35.4zm-0.2 72.4c22.1 0.3 43.4 1.4 64.7 2.5-1.4 22.8-1.8 46.7-2.6 69.9-19.4-2-38.7-4.2-58.7-5.6-0.9-22.5-2.2-44.7-3.4-66.8zm3.6 68.4c20 1.4 39.3 3.6 58.7 5.6v69.1c0 1.5 0.5 3.7-0.6 4.2-18.5-1.5-36.6-3.3-54.9-5-0.9-24.7-2.1-49.2-3.2-73.9zm3.2 75.5c18.5 1.6 36.7 3.6 55.5 5 0.2 21.8 0.9 43.1 1.8 64.1q-27.7-2.2-55.3-4.4c-0.5-21.8-1-43.5-2-64.7zm-1.4 181.1c1.2-14.9 1.9-30.3 2.6-45.7 19.1-0.5 38.3 0.7 56.7 1.6-0.3 15.1-2.2 29.5-3.8 44.1 1.6 14.5 3.5 29 3.8 44.1-18.4 0.9-37.6 2.1-56.7 1.6-0.7-15.5-1.4-30.8-2.6-45.7zm3.4 116.4q27.7-2.2 55.3-4.4c-0.9 21-1.6 42.3-1.8 64.1-18.8 1.4-37 3.4-55.5 5 1-21.3 1.5-42.9 2-64.7zm-2 66.3c18.3-1.7 36.4-3.6 54.9-5 1.1 0.5 0.6 2.7 0.6 4.2v69.1c-19.4 2-38.7 4.1-58.7 5.5 1.1-24.6 2.3-49.1 3.2-73.8zm-3.4 75.4c20-1.4 39.3-3.5 58.7-5.6 0.8 23.3 1.2 47.2 2.6 69.9-21.3 1.2-42.6 2.3-64.7 2.6 1.2-22.2 2.5-44.3 3.4-66.9zm-3.2 68.5c22.1-0.4 43.3-1.5 64.7-2.6q1.2 19.4 3.1 38-1.9 18.6-3.1 38c-21.4-1.1-42.6-2.3-64.7-2.6-1-11.4-1.4-23.4-1.7-35.4 0.3-12 0.7-24 1.7-35.4zm-0.2 72.4c22.1 0.3 43.4 1.4 64.7 2.5-1.4 22.8-1.8 46.6-2.6 69.9-19.4-2-38.7-4.1-58.7-5.6-0.9-22.5-2.2-44.7-3.4-66.8zm3.6 68.4c20 1.4 39.3 3.6 58.7 5.6v69.1c0 1.5 0.5 3.7-0.6 4.2-18.5-1.5-36.6-3.3-54.9-5-0.9-24.7-2.1-49.2-3.2-73.9zm3.2 75.5c18.5 1.6 36.7 3.6 55.5 5 0.2 21.8 0.9 43.1 1.8 64.1q-27.7-2.2-55.3-4.4c-0.5-21.8-1-43.5-2-64.7zm57.3 135.4c-0.3 0.1-0.5-0.2-0.8-0.2-8.9-0.8-18.1-0.6-27.5-1q-13.7-0.6-27.8-0.6c0.7-22 1.2-44.7 0.8-67.3 18.5 1.4 36.9 2.9 55.3 4.4 0.8 18.7 1.7 41.7 0.8 61.1-0.1 1.9 0.5 3.2-0.8 3.6zm54.4 2.2c-17.6-0.5-34.8-1.3-52-2.2 0.4-21.5 0.3-43.9-0.8-64.5 18.7 1.5 37.1 3.3 55.7 5-0.6 20.9-2.1 41-2.9 61.7zm63.1 2.8c-20.3-1.1-41.1-1.8-61.7-2.6 1.2-20.4 2.3-40.9 3.1-61.7 18 1.5 35.7 3.4 54 4.5 1.3 20.3 3.3 39.8 5 59.8zm2 0c-1.7-19.9-3.7-39.3-5-59.6 20.1 1.5 40.3 2.9 61.1 3.8 0.3 15.6 1.8 30.8 3.4 44.8 0.5 4.8 1.3 9.6 1.2 14.2-19.9-1.4-40.4-2.3-60.7-3.2zm112.4 6.3c-16.7-0.9-33.1-2.1-49.7-3.1-2.4-18.9-4.5-38-5-58.8 19.5 0.9 39 1.9 58.7 2.6q-2.3 29.4-4 59.3zm41 3.1c-13.1-0.9-26.2-1.9-39.4-2.9 1.1-19.9 2.4-39.7 4-59.1 11.7-0.1 23.5 0.6 35.4 1 11.9-0.4 23.8-1 35.4-1 1.7 19.4 2.9 39.2 4 59.1-13.1 1-26.2 2-39.4 2.9zm90.8-6.2c-16.7 1-33.1 2.2-49.8 3.1q-1.7-29.9-4-59.3c19.8-0.7 39.3-1.7 58.8-2.6-0.5 20.8-2.6 39.9-5 58.8zm62.7-3.2c-20.3 0.9-40.8 1.8-60.7 3.2-0.1-4.6 0.6-9.4 1.2-14.2 1.6-14 3.1-29.2 3.4-44.8 20.7-0.8 41-2.3 61.1-3.8-1.3 20.3-3.3 39.7-5 59.6zm2 0h-0.4c1.6-20 3.7-39.5 5-59.8 18.3-1.1 36-3 53.9-4.5 0.9 20.8 2 41.3 3.2 61.7-20.6 0.8-41.4 1.5-61.7 2.6zm115.1-5c-17.2 0.9-34.4 1.7-52 2.2-0.8-20.7-2.3-40.8-3-61.7 18.7-1.7 37.1-3.5 55.8-5-1.1 20.6-1.2 43-0.8 64.5zm-55.2-61.1c-0.8-21.9-1.3-44.1-2.1-65.9 20.3-0.8 40.1-2 59.9-3.2-0.1 21.9-0.9 43.1-1.8 64.1-18.8 1.6-37.2 3.4-56 5zm85.8 59.9c-9.3 0.4-18.5 0.2-27.5 1-0.3 0-0.4 0.3-0.7 0.2-1.3-0.4-0.8-1.7-0.8-3.6-0.9-19.4 0-42.3 0.8-61.1 18.4-1.5 36.8-3 55.3-4.4-0.4 22.6 0 45.3 0.8 67.3-9.4 0-18.7 0.2-27.8 0.6zm92.1-0.6q-15.4-0.2-31.4-0.2-15.9 0-31.3 0.2c-0.7-21.8-1.5-45.2-0.6-67.3q15.7-1.3 31.9-2 16.3 0.7 32 2c0.9 22.1 0.1 45.5-0.6 67.3zm0.4-133.6c18.5 1.6 36.7 3.6 55.5 5 0.2 21.8 0.9 43.1 1.8 64.1q-27.7-2.2-55.3-4.4c-0.4-21.8-1-43.5-2-64.7zm57.4 135.4c-0.4 0.1-0.5-0.2-0.8-0.2-9-0.8-18.1-0.6-27.5-1q-13.8-0.6-27.9-0.6c0.8-22 1.2-44.7 0.8-67.3 18.5 1.4 36.9 2.9 55.4 4.4 0.7 18.7 1.6 41.7 0.7 61.1 0 1.9 0.5 3.2-0.7 3.6zm54.3 2.2c-17.6-0.5-34.8-1.3-51.9-2.2 0.4-21.5 0.2-43.9-0.8-64.5 18.7 1.5 37.1 3.3 55.7 5-0.6 20.9-2.1 41-2.9 61.7zm63.1 2.8c-20.4-1.1-41.1-1.8-61.8-2.6 1.3-20.4 2.4-40.9 3.2-61.7 18 1.5 35.7 3.4 54 4.5 1.3 20.3 3.3 39.8 4.9 59.8zm2 0c-1.6-19.9-3.7-39.3-4.9-59.6 20.1 1.5 40.3 2.9 61.1 3.8 0.3 15.6 1.8 30.8 3.4 44.8 0.5 4.8 1.2 9.6 1.2 14.2-19.9-1.4-40.4-2.3-60.7-3.2zm112.5 6.3c-16.8-0.9-33.2-2.1-49.8-3.1-2.4-18.9-4.5-38-5-58.8 19.5 0.9 39 1.9 58.7 2.6q-2.2 29.4-3.9 59.3zm41 3.1c-13.2-0.9-26.3-1.9-39.4-2.9 1.1-19.9 2.3-39.7 4-59.1 11.6-0.1 23.5 0.6 35.4 1 11.9-0.4 23.7-1 35.4-1 1.6 19.4 2.9 39.2 4 59.1-13.1 1-26.2 2-39.4 2.9zm90.8-6.2c-16.7 1-33.1 2.2-49.8 3.1q-1.7-29.9-4-59.3c19.8-0.7 39.2-1.7 58.7-2.6-0.4 20.8-2.5 39.9-4.9 58.8zm62.7-3.2c-20.3 0.9-40.8 1.8-60.7 3.2-0.1-4.6 0.6-9.4 1.2-14.2 1.6-14 3.1-29.2 3.4-44.8 20.7-0.8 41-2.3 61.1-3.8-1.3 20.3-3.3 39.7-5 59.6zm2 0h-0.4c1.7-20 3.7-39.5 5-59.8 18.4-1.1 36-3 53.9-4.5 0.9 20.8 2 41.3 3.2 61.7-20.6 0.8-41.3 1.5-61.6 2.6zm115-5c-17.1 0.9-34.3 1.7-51.9 2.2-0.9-20.7-2.4-40.8-3-61.7 18.6-1.7 37-3.5 55.7-5-1 20.6-1.2 43-0.7 64.5zm-55.2-61.1c-0.8-21.9-1.3-44.1-2.2-65.9 20.3-0.8 40.2-2 60-3.2-0.1 21.9-0.9 43.1-1.8 64.1-18.8 1.6-37.2 3.4-56 5zm85.8 59.9c-9.4 0.4-18.5 0.2-27.5 1-0.3 0-0.4 0.3-0.7 0.2-1.3-0.4-0.8-1.7-0.8-3.6-0.9-19.4 0-42.3 0.8-61.1 18.4-1.5 36.8-3 55.3-4.4-0.4 22.6 0 45.3 0.8 67.3-9.4 0-18.7 0.2-27.8 0.6zm27-69.5q-27.7 2.2-55.3 4.4c0.9-21.1 1.6-42.3 1.8-64.1 18.8-1.4 37-3.4 55.5-5-0.9 21.2-1.5 42.9-1.9 64.7zm1.9-66.3c-18.3 1.7-36.4 3.5-54.9 5-1.1-0.5-0.6-2.7-0.6-4.2v-69.1c19.4-2 38.7-4.2 58.7-5.6-1 24.7-2.2 49.2-3.1 73.9zm3.4-75.5c-20.1 1.5-39.3 3.6-58.8 5.6-0.8-23.3-1.1-47.1-2.6-69.9 21.3-1.1 42.6-2.2 64.7-2.5-1.2 22.1-2.4 44.3-3.3 66.8zm3.2-68.4c-22.1 0.3-43.4 1.5-64.7 2.6q-1.2-19.4-3.1-38 1.9-18.6 3.1-38c21.3 1.1 42.6 2.2 64.7 2.6 1 11.4 1.4 23.4 1.7 35.4-0.3 12-0.7 24-1.7 35.4zm0.2-72.4c-22.1-0.3-43.4-1.4-64.7-2.6 1.4-22.7 1.8-46.6 2.6-69.9 19.4 2.1 38.7 4.2 58.7 5.6 0.9 22.6 2.2 44.7 3.4 66.9zm-3.6-68.5c-20-1.4-39.2-3.5-58.7-5.5v-69.1c0-1.5-0.5-3.7 0.6-4.2 18.5 1.4 36.6 3.3 55 5 0.9 24.7 2.1 49.2 3.2 73.8zm-3.2-75.4c-18.6-1.6-36.8-3.6-55.6-5-0.1-21.8-0.8-43.1-1.7-64.1q27.6 2.2 55.3 4.4c0.5 21.8 1 43.4 2 64.7zm1.4-181.1c-1.2 14.9-1.9 30.2-2.6 45.7-19.1 0.5-38.3-0.7-56.7-1.6 0.3-15.1 2.2-29.6 3.8-44.1-1.6-14.6-3.5-29-3.8-44.1 18.4-0.9 37.6-2.1 56.7-1.6 0.7 15.4 1.4 30.8 2.6 45.7zm-3.3-116.4q-27.7 2.2-55.4 4.4c0.9-21.1 1.7-42.3 1.8-64.1 18.8-1.4 37-3.4 55.5-5-0.9 21.2-1.5 42.9-1.9 64.7zm2-66.3c-18.3 1.7-36.4 3.5-55 5-1.1-0.5-0.6-2.7-0.6-4.2v-69.1c19.5-2 38.7-4.2 58.8-5.6-1.1 24.7-2.3 49.2-3.2 73.9zm3.4-75.4c-20 1.4-39.3 3.5-58.7 5.5-0.9-23.2-1.2-47.1-2.6-69.8 21.3-1.2 42.6-2.3 64.7-2.6-1.2 22.1-2.5 44.3-3.4 66.9zm3.2-68.5c-22 0.3-43.3 1.5-64.7 2.6q-1.2-19.4-3.1-38 1.9-18.6 3.1-38c21.4 1.1 42.7 2.2 64.7 2.6 1 11.4 1.4 23.4 1.7 35.4-0.3 12-0.7 24-1.7 35.4zm0.2-72.4c-22.1-0.3-43.4-1.4-64.7-2.6 1.5-22.7 1.8-46.6 2.6-69.9 19.4 2.1 38.7 4.2 58.7 5.6 1 22.6 2.2 44.7 3.5 66.9zm-3.6-68.5c-20.1-1.4-39.3-3.5-58.8-5.5v-69.1c0-1.5-0.4-3.7 0.6-4.2 18.6 1.4 36.7 3.3 55 5 0.9 24.7 2.1 49.2 3.2 73.8zm-3.2-75.4c-18.5-1.6-36.7-3.6-55.5-5-0.2-21.8-0.9-43.1-1.8-64.1q27.7 2.2 55.3 4.4c0.5 21.8 1.1 43.4 2 64.7z"/>
</svg>